<svg xmlns="http://www.w3.org/2000/svg" id="Layer_1" data-name="Layer 1" viewBox="0 0 1080 1080"><defs><style>.cls-1{fill:#fff;stroke:#4268ad;}.cls-1,.cls-2{stroke-miterlimit:10;stroke-width:15px;}.cls-2{fill:none;stroke:#df7a7b;}</style></defs><path class="cls-1" d="M678.18,931.93c5.64-98.57,9.45-168.62,9.54-187.61a68.65,68.65,0,0,1,3.45-22,70.66,70.66,0,0,1,14-24.11C744.68,652.41,767,631.17,767,631.17c20.79-19.8,11.08-12.43,61.75-63.59,17.83-18,47.32-47.25,73.4-46.37a50.11,50.11,0,0,1,14.57,2.91c15.12,5.84,22.84,18.65,25.7,24.11a37.9,37.9,0,0,0,5-17.63c-1-133.77-1-231.49-.32-248.54a45.51,45.51,0,0,1,3.51-16c5.3-12.51,14.88-18.95,18.83-21.53,18.07-11.79,37.76-8.86,45.23-7.75,8.84,1.32,21.26,3.17,31.33,13.12,8.09,8,11,17.51,13.25,25.17,2.21,7.35,2.74,14,3.71,27,.57,7.63,1.11,17.57,1.2,29.28q-1.53,155.75-3.05,311.49a102.79,102.79,0,0,1-5.7,37.5,101.14,101.14,0,0,1-9.61,20A794.64,794.64,0,0,1,868.71,883.18v50.08Z"></path><rect class="cls-1" x="616.32" y="935.64" width="331.35" height="123.48" rx="13.46"></rect><path class="cls-1" d="M837.7,681.26C854.59,663.19,869.2,649.68,879,641c28.41-25.12,40.06-32.85,51.14-50.88,7.06-11.47,14.65-28.74,16.6-53.83"></path><path class="cls-1" d="M401.63,931.93c-5.63-98.57-9.44-168.62-9.54-187.61a68.24,68.24,0,0,0-3.44-22,70.83,70.83,0,0,0-14-24.11c-39.47-45.81-61.75-67.05-61.75-67.05-20.78-19.8-11.08-12.43-61.74-63.59-17.83-18-47.33-47.25-73.4-46.37a50,50,0,0,0-14.57,2.91C148,530,140.31,542.77,137.44,548.23a38.28,38.28,0,0,1-3.71-8.91,37.54,37.54,0,0,1-1.31-8.72c1-133.77,1-231.49.32-248.54a45.75,45.75,0,0,0-3.51-16c-5.3-12.51-14.88-18.95-18.83-21.53-18.07-11.79-37.76-8.86-45.23-7.75-8.84,1.32-21.26,3.17-31.34,13.12-8.08,8-10.94,17.51-13.25,25.17-2.2,7.35-2.73,14-3.71,27-.56,7.63-1.1,17.57-1.19,29.28q1.53,155.75,3.05,311.49A101.6,101.6,0,0,0,34,700.31,795,795,0,0,0,211.11,883.18v50.08Z"></path><path class="cls-1" d="M242.11,681.26c-16.89-18.07-31.49-31.58-41.34-40.28-28.4-25.12-40.05-32.85-51.14-50.88-7-11.47-14.64-28.74-16.59-53.83"></path><rect class="cls-1" x="132.14" y="935.64" width="331.55" height="123.48" rx="13.46" transform="translate(595.83 1994.77) rotate(180)"></rect><ellipse class="cls-1" cx="540.16" cy="307.46" rx="68.19" ry="70.71"></ellipse><path class="cls-1" d="M709.53,552.85c-28.11,28.1-58.81,57-92.25,86.06q-38.56,33.55-75.59,62.26-33.81-27.92-68.29-58c-36.18-31.57-70.32-64.93-103-96,12-87.64,84.92-151.28,169.78-151C625.94,396.52,699.17,464,709.53,552.85Z"></path><path class="cls-2" d="M540.21,199.74c1.6-3.69,4.09-9.31,7.26-16.07C568.4,139.1,586.17,102.5,619.16,73c38.76-34.68,83.49-46,133.53-36.14,33.28,6.56,62.83,21,87.49,45.24,30.53,30,46.34,67.68,50.58,110.57,7.33,74.22-12.85,141-51.94,202.6C816.15,431,787.47,473.57,718.58,543.63A1806.36,1806.36,0,0,1,548.89,695.57l-7.2,5.6L535,695.51C438.43,616,368.35,546.72,322.35,498A625.1,625.1,0,0,1,227,365.26C198.5,312,186.56,255,192.08,194.43c4.67-51.24,24.63-95.22,66-125.21,31.21-22.61,64-35.4,98-36.34,6.37-.18,37.43-.48,73.09,16.07,41,19,63.45,49,72.94,62a216.13,216.13,0,0,1,33.15,68.25Q537.76,189.46,540.21,199.74Z"></path></svg>