<svg xmlns="http://www.w3.org/2000/svg" id="Layer_1" data-name="Layer 1" viewBox="0 0 1080 1080"><defs><style>.cls-1{fill:#010101;}.cls-2{fill:#fff;stroke:#000;stroke-miterlimit:10;stroke-width:40px;}</style></defs><polygon class="cls-1" points="261.79 79.81 284.89 150.91 359.65 150.91 299.17 194.86 322.27 265.96 261.79 222.01 201.31 265.96 224.41 194.86 163.93 150.91 238.69 150.91 261.79 79.81"></polygon><polygon class="cls-1" points="817.37 88.07 840.48 159.17 915.23 159.17 854.75 203.11 877.86 274.21 817.37 230.27 756.89 274.21 779.99 203.11 719.51 159.17 794.27 159.17 817.37 88.07"></polygon><polygon class="cls-1" points="540 10.03 563.1 81.13 637.86 81.13 577.38 125.08 600.48 196.18 540 152.23 479.52 196.18 502.62 125.08 442.14 81.13 516.9 81.13 540 10.03"></polygon><polygon class="cls-1" points="163.93 299.96 187.03 371.06 261.79 371.06 201.31 415.01 224.41 486.11 163.93 442.16 103.45 486.11 126.55 415.01 66.07 371.06 140.83 371.06 163.93 299.96"></polygon><polygon class="cls-1" points="916.07 293.15 939.17 364.25 1013.93 364.25 953.45 408.19 976.55 479.29 916.07 435.35 855.59 479.29 878.69 408.19 818.21 364.25 892.97 364.25 916.07 293.15"></polygon><circle class="cls-2" cx="540" cy="462.28" r="164.26"></circle><path class="cls-2" d="M141.51,1073.45C141.51,867.75,319.92,701,540,701s398.49,166.75,398.49,372.45"></path><line class="cls-2" x1="143.83" y1="1053.4" x2="953.43" y2="1053.4"></line></svg>