<svg xmlns="http://www.w3.org/2000/svg" id="Layer_1" data-name="Layer 1" viewBox="0 0 1080 1080"><defs><style>.cls-1{fill:#fff;stroke:#4268ad;}.cls-1,.cls-2{stroke-miterlimit:10;stroke-width:15px;}.cls-2{fill:none;stroke:#df7a7b;}</style></defs><circle class="cls-1" cx="526.29" cy="503.54" r="152.11"></circle><path class="cls-1" d="M93.74,1080c6.33-39.46,29.06-147.7,121.89-238.26,119.13-116.21,267.15-118.87,310.66-119,37.45-.07,198.06-.39,320.34,126.09C931.83,937,952.77,1039.44,958.84,1080"></path><polygon class="cls-2" points="526.47 34.24 547.32 98.42 614.8 98.42 560.21 138.09 581.06 202.27 526.47 162.6 471.87 202.27 492.72 138.09 438.13 98.42 505.61 98.42 526.47 34.24"></polygon><polygon class="cls-2" points="144.22 344.35 160.09 393.19 211.45 393.19 169.9 423.38 185.77 472.22 144.22 442.04 102.67 472.22 118.54 423.38 76.99 393.19 128.35 393.19 144.22 344.35"></polygon><polygon class="cls-2" points="905.2 344.35 921.07 393.19 972.42 393.19 930.87 423.38 946.74 472.22 905.2 442.04 863.65 472.22 879.52 423.38 837.97 393.19 889.32 393.19 905.2 344.35"></polygon><polygon class="cls-2" points="268.64 134.6 287.62 193.01 349.05 193.01 299.36 229.12 318.34 287.54 268.64 251.43 218.95 287.54 237.93 229.12 188.24 193.01 249.66 193.01 268.64 134.6"></polygon><polygon class="cls-2" points="757.56 134.6 776.54 193.01 837.97 193.01 788.27 229.12 807.25 287.54 757.56 251.43 707.87 287.54 726.85 229.12 677.16 193.01 738.58 193.01 757.56 134.6"></polygon></svg>