<svg xmlns="http://www.w3.org/2000/svg" id="Layer_1" data-name="Layer 1" viewBox="0 0 1080 1080"><defs><style>.cls-1{fill:#fff;stroke:#4268ad;stroke-width:15px;}.cls-1,.cls-2{stroke-miterlimit:10;}.cls-2{fill:none;stroke:#df7a7b;stroke-width:10px;}.cls-3{fill:#df7a7b;}.cls-4{font-size:265.24px;fill:#4268ad;font-family:MyriadPro-Regular, Myriad Pro;}</style></defs><circle class="cls-1" cx="824.75" cy="127.66" r="118.17"></circle><path class="cls-1" d="M595.7,494.47c0-126.08,103.75-229.83,229.83-229.83s229.83,103.75,229.83,229.83Z"></path><line class="cls-2" x1="451.42" y1="221.68" x2="580.07" y2="221.68"></line><path class="cls-3" d="M640.42,221.68C612,232.21,576.79,250.19,555,269.23l17.2-47.55L555,174.13C576.79,193.17,612,211.15,640.42,221.68Z"></path><line class="cls-2" x1="213.43" y1="638.17" x2="213.43" y2="510.69"></line><path class="cls-3" d="M213.43,450.34C224,478.74,241.94,514,261,535.81l-47.56-17.2-47.55,17.2C184.92,514,202.9,478.74,213.43,450.34Z"></path><polyline class="cls-2" points="824.75 525 824.75 866.83 565.44 866.83"></polyline><path class="cls-3" d="M505.09,866.83c28.4-10.53,63.63-28.51,85.47-47.55l-17.2,47.55,17.2,47.55C568.72,895.34,533.49,877.36,505.09,866.83Z"></path><circle class="cls-1" cx="215.76" cy="866.83" r="201.25"></circle><circle class="cls-1" cx="215.76" cy="866.83" r="159.83"></circle><text class="cls-4" transform="translate(149.72 950.4)">$</text><rect class="cls-1" x="13.75" y="184.09" width="93.86" height="209.68"></rect><path class="cls-1" d="M107.6,184.09a228,228,0,0,0,26.63-21.52c11-10.33,21.88-20.6,31.06-37.28a122.89,122.89,0,0,0,12.43-33.73c2.72-13,6.95-33.1.44-55.47-2.11-7.27-4.59-12.15-2.21-14.64C181.33,15.8,204.39,30,207,31.66c9.18,5.73,28.28,18,40.38,43,11.88,24.56,10,46.43,8.88,59.47C255,148.66,254,160,245.62,169.67c-6.89,8-13.29,8.54-14.65,15.09-2.11,10.15,11.95,15.23,16.42,30.17,4.59,15.31-4.06,30.37-9.32,39.5-14.82,25.73-40.68,35-49.26,37.72"></path><path class="cls-1" d="M107.6,393.77a115.15,115.15,0,0,0,27.52,16.42c6.56,2.77,20.66,8.55,39,8.88,13.79.24,24.93-2.67,45.26-8,11.77-3.08,20.4-6.08,33.73-5.77a84.61,84.61,0,0,1,17.31,2.22"></path><rect class="cls-1" x="240.92" y="166.12" width="134.02" height="49.7" rx="24.22"></rect><rect class="cls-1" x="246.95" y="221.68" width="150.44" height="58.03" rx="24.22"></rect><rect class="cls-1" x="235.15" y="285.56" width="144.48" height="58.03" rx="24.22"></rect><rect class="cls-1" x="235.15" y="349.44" width="117.41" height="58.03" rx="24.22"></rect></svg>