<svg xmlns="http://www.w3.org/2000/svg" id="Layer_1" data-name="Layer 1" viewBox="0 0 1080 1080"><defs><style>.cls-1,.cls-2{fill:#fff;stroke-miterlimit:10;stroke-width:15px;}.cls-1{stroke:#df7a7b;}.cls-2{stroke:#4268ad;}</style></defs><path class="cls-1" d="M134.94,225c2.64-3.22,5-6.25,7.54-9.19,7.74-9,17.61-14.83,29.43-17.8,20.33-5.11,44.08,2.69,56.8,18.58,12.32,15.4,14.44,32.41,9.11,50.61-4.45,15.22-13.19,28.23-23.41,40.45-14.69,17.57-32.06,32.49-50.75,46.06-8.84,6.42-18.07,12.36-27.1,18.54a2.25,2.25,0,0,1-2.9.19C110,357.23,87.41,340.8,67.77,321c-12.15-12.25-23-25.4-30.55-40.8-5.23-10.75-8.44-22-7.7-33.95,1-15.49,7.85-28.23,20.44-38,12-9.35,26-13.07,41.3-11.38,15.72,1.72,28.34,9,38,20.92,1,1.18,1.89,2.38,2.83,3.57Z"></path><path class="cls-1" d="M941.39,227.24c2.64-3.21,5-6.25,7.54-9.18,7.74-9,17.61-14.83,29.43-17.8,20.33-5.11,44.08,2.68,56.8,18.58,12.32,15.39,14.44,32.4,9.12,50.61-4.46,15.21-13.2,28.22-23.42,40.44-14.69,17.57-32.06,32.49-50.75,46.06-8.84,6.42-18.07,12.36-27.1,18.54a2.23,2.23,0,0,1-2.9.19c-23.67-15.16-46.24-31.58-65.88-51.38-12.15-12.25-23.05-25.4-30.56-40.81-5.23-10.75-8.44-22-7.7-33.94,1-15.5,7.85-28.24,20.44-38,12-9.35,26-13.06,41.3-11.38,15.73,1.73,28.34,9,38,20.93,1,1.18,1.89,2.38,2.83,3.57Z"></path><path class="cls-1" d="M707.16,56.73c2.64-3.22,5-6.25,7.54-9.18,7.74-9,17.61-14.83,29.43-17.8,20.33-5.11,44.08,2.68,56.8,18.58,12.32,15.39,14.44,32.4,9.11,50.61-4.45,15.21-13.19,28.22-23.41,40.44-14.69,17.57-32.06,32.49-50.75,46.06-8.84,6.42-18.07,12.36-27.1,18.54a2.23,2.23,0,0,1-2.9.19C682.21,189,659.63,172.59,640,152.79c-12.15-12.25-23-25.4-30.55-40.81-5.23-10.75-8.44-22-7.7-33.94,1-15.5,7.85-28.24,20.44-38,12-9.35,26-13.06,41.3-11.38,15.72,1.73,28.34,9,38,20.93.95,1.18,1.89,2.38,2.83,3.57Z"></path><path class="cls-1" d="M369.43,56.73c2.64-3.22,5-6.25,7.54-9.18,7.74-9,17.61-14.83,29.43-17.8,20.33-5.11,44.08,2.68,56.8,18.58,12.32,15.39,14.44,32.4,9.11,50.61-4.45,15.21-13.19,28.22-23.41,40.44-14.69,17.57-32.06,32.49-50.75,46.06-8.84,6.42-18.07,12.36-27.1,18.54a2.23,2.23,0,0,1-2.9.19c-23.67-15.16-46.25-31.58-65.89-51.38-12.15-12.25-23-25.4-30.55-40.81-5.23-10.75-8.44-22-7.7-33.94,1-15.5,7.85-28.24,20.44-38,12-9.35,26-13.06,41.3-11.38,15.72,1.73,28.34,9,38,20.93.95,1.18,1.89,2.38,2.83,3.57Z"></path><polygon class="cls-2" points="540 811.32 876.24 509.05 965.76 577.81 724.46 829.49 724.46 1044.84 348.24 1044.84 348.24 825.6 119.27 573.27 206.19 504.51 540 811.32"></polygon><path class="cls-2" d="M451.81,728c-.27,47.62-6,91.52-6.27,139.14,1.32-2.21,33.43-53.92,94.7-53.19,59.6.71,90.43,50.36,92.11,53.19l-.21-138.62"></path><path class="cls-2" d="M460,737.76q13.34-28.08,26.66-56.17a120.79,120.79,0,0,0,107.83-2l26.72,58.76c-27.06,24.32-54.11,39.24-81.17,63.56C513.32,777.4,486.64,762.28,460,737.76Z"></path><path class="cls-2" d="M206.19,504.51c-.09-2.13-1.55-27.7-21.84-39.35-19.25-11.05-40.42-.84-48,2.81a68.59,68.59,0,0,0-27.68,24.83,5.72,5.72,0,0,1-2.86,1.66,6.72,6.72,0,0,1-4.71-1.12c-4.88-2.95-22.19-7.09-28.32-7.64-12-1.07-26.95,7.52-32.86,21a34.64,34.64,0,0,0,1.3,29.83c3,5.51,8.15,11.06,35.89,22.27a422,422,0,0,0,42.16,14.49Z"></path><path class="cls-2" d="M879.14,506.71c.09-2.14,1.55-27.7,21.84-39.35,19.26-11.05,40.43-.84,48,2.81A68.71,68.71,0,0,1,976.67,495a5.64,5.64,0,0,0,2.85,1.66,6.75,6.75,0,0,0,4.71-1.12c4.88-3,22.2-7.09,28.32-7.64,12-1.07,27,7.52,32.86,21a34.66,34.66,0,0,1-1.29,29.84c-3,5.51-8.15,11.06-35.9,22.27a423.68,423.68,0,0,1-42.16,14.49Z"></path><path class="cls-2" d="M353.43,500c-7.57-20.3-18.39-58.32-11.67-105.08,2.86-20,9-62.59,42.81-98.59C408.29,271,434.4,261,454.62,253.49c88.81-33,169.5-.93,190.7,8.43,15.81,7,31.84,14.22,48.65,29.84,40.56,37.65,46.89,88,48.65,103.78,4.79,43.09-7.29,77.39-14.92,94.7"></path><path class="cls-2" d="M673.6,475.65c40.45,0,73.24,27.44,73.24,61.3s-32.79,61.29-73.24,61.29a88.61,88.61,0,0,1-10.25-.59"></path><path class="cls-2" d="M397.85,483c-36.43,0-66,25.5-66,57s29.54,57,66,57a78,78,0,0,0,9.24-.55"></path><rect class="cls-2" x="399.49" y="341.05" width="271.14" height="348.97" rx="135.57"></rect></svg>