<svg xmlns="http://www.w3.org/2000/svg" id="Layer_1" data-name="Layer 1" viewBox="0 0 1080 1080"><defs><style>.cls-1{fill:#fffdfd;}.cls-1,.cls-2,.cls-4,.cls-5{stroke:#4268ad;}.cls-1,.cls-2,.cls-3,.cls-4,.cls-5{stroke-miterlimit:10;}.cls-1,.cls-3,.cls-4,.cls-5{stroke-width:15px;}.cls-2{fill:#4268ad;stroke-width:4px;}.cls-3,.cls-5{fill:none;}.cls-3{stroke:#df7a7b;}.cls-4{font-size:256.98px;fill:#fff;font-family:Poppins-SemiBold, Poppins;font-weight:600;}</style></defs><circle class="cls-1" cx="540" cy="540" r="471.28"></circle><circle class="cls-1" cx="540" cy="540" r="422.79"></circle><rect class="cls-2" x="535.45" y="978.95" width="9.09" height="100.98" rx="2.27"></rect><rect class="cls-2" x="535.45" y="0.07" width="9.09" height="100.98" rx="2.27"></rect><rect class="cls-2" x="1024.96" y="489.51" width="9.09" height="100.98" rx="2.27" transform="translate(1569.51 -489.51) rotate(90)"></rect><rect class="cls-2" x="45.94" y="489.51" width="9.09" height="100.98" rx="2.27" transform="translate(590.49 489.51) rotate(90)"></rect><path class="cls-3" d="M539.41,283.18c8.64-9.75,16.23-19.87,25.36-28.3,19.61-18.09,43.33-26.39,70-25.18,36.83,1.66,64.73,18.9,83.53,50.38,12.61,21.12,15.71,44.26,11.89,68.39-4,25.5-14.74,48.27-28.84,69.61-26.12,39.54-59.61,72.15-96.48,101.36C584.77,535.34,563.59,549.81,543,565c-2.16,1.59-3.71,1.6-6,.07C501,540.83,466.47,514.85,435.2,484.72c-26.67-25.68-50.89-53.39-68.31-86.39-12.13-23-19.86-47.21-18.41-73.6,1.63-29.62,14.16-54,37-72.73,21.74-17.89,47.12-25,74.94-21.86,28.71,3.28,51.73,17.21,69.26,40.18q4.92,6.45,9.87,12.88C539.58,283.28,539.76,283.27,539.41,283.18Z"></path><text class="cls-4" transform="translate(453.4 487.17)">+</text><rect class="cls-5" x="261.39" y="624.94" width="86.25" height="200.4"></rect><path class="cls-5" d="M350.19,798.48,554.88,845.9a45.4,45.4,0,0,0,17.19,3.43c15.56,0,26.48-8.2,30.08-11.17L820.46,701.5a33.93,33.93,0,0,0,12.46-13.75c1.27-2.59,5.39-11.33,2.58-21.92-3.82-14.4-17.23-20-18.69-20.62-15.83-6.34-29.86,3.11-30.94,3.86L666,720c1.25-1.82,8.79-13.21,5.16-27.07-3.35-12.77-14.82-22.51-29-24.5L519,669.06a53.38,53.38,0,0,1-20.63-.65c-11-2.6-15.45-7.65-29-12.89a103.83,103.83,0,0,0-18.05-5.16l-101.15-.79"></path><path class="cls-5" d="M492.85,734.81s75.55,1.92,133.8,1.93c5.31,0,16.17-.12,27.07-6.44A47.16,47.16,0,0,0,666,720"></path></svg>