<svg xmlns="http://www.w3.org/2000/svg" id="Layer_1" data-name="Layer 1" viewBox="0 0 1080 1080"><defs><style>.cls-1,.cls-2{fill:#fff;}.cls-1{stroke:#4567b0;stroke-miterlimit:10;stroke-width:15px;}.cls-3{fill:#e07b7b;}</style></defs><path class="cls-1" d="M302.67,705.77c15.69,2.25,38,5.08,64.81,7.23,38.95,3.12,68.92,3.33,88.53,3.35,101.77.09,152.66.14,200.9-5.52,77.6-9.11,116.43-13.62,162.23-37.08,65.66-33.62,104.49-84.43,124.55-115.93,14.18,14,71.55,71.11,83.1,96.17.56,1.22,1.11,2.45,1.11,2.45a238.76,238.76,0,0,1,14.79,45.84c16.48,76.39,1.21,146.22-46.19,208.57-6.43,8.46-8.72,16.84-3.81,26.13,11,20.9,22.57,41.55,34,62.25,1.45,2.63,3.45,4.95,6.2,8.85-30.36.82-59-2.32-85-14.19-22.93-10.46-42.73-11.64-66.08-.61-26.32,12.43-55.73,15.07-85,15.07-82.44,0-164.88.24-247.31-.05-129.32-.46-234.55-93.88-250.19-222.21a247.67,247.67,0,0,1-.85-46.68h0C300.14,726.36,301.53,715.19,302.67,705.77Z"></path><path class="cls-2" d="M795.43,488.77c-17.81-17.92-32.67-33.61-48.48-48.29-4.35-4-11.78-7.38-17.32-6.75-5,.56-12.09,6.27-13.29,11-1.45,5.67.4,14.38,4.24,18.78,12.37,14.19,26.33,27,39.64,40.35,2.39,2.4,4.62,5,7,7.48-25.45,19.05-68.89,12.74-91.72-17.36a71.7,71.7,0,0,1-14.77-43.88c-.21-35.28-.45-70.57,0-105.85.54-40.7,30.85-71.45,70.44-72.36,38.72-.9,70.76,28.61,72.25,69,1.38,37.33.91,74.75,0,112.11C803.14,464.05,798.64,475,795.43,488.77Z"></path><path class="cls-2" d="M553.34,396.32H410.56c1.46-25.86-4.41-52.08,4.37-77.43,11.44-33,45.05-51.84,80.17-45.9,32.43,5.49,57.52,34.89,58.18,68.66C553.62,359.7,553.34,377.77,553.34,396.32Z"></path><path class="cls-1" d="M32.44,735.05c26.09-31.45,44.47-65.92,56.79-103.87,4-12.31,2.11-21.57-5.57-31.87-138.72-186-51.92-456.15,169.07-526.69a330.87,330.87,0,0,1,101-15.55c97.47-.06,194.93-.39,292.39.06,168.57.79,310.83,126,333.15,292.52C1002.49,523,896.58,682.71,728.75,726c-23.12,6-47.47,9.7-71.29,9.94-104.79,1-209.59.79-314.38.27-46-.23-90-11.24-131.21-31.57-13.52-6.67-24.51-7-38.1.35A257,257,0,0,1,42,736.54c-2.09-.06-4.19-.12-6.28-.28A18.5,18.5,0,0,1,32.44,735.05Z"></path><path class="cls-3" d="M815.52,474.76c5.79,5.17,11.83,9.76,16.9,15.25,10.26,11.12,10.08,25.89.18,35.9s-25,10.21-36.05.26c-5.56-5-10.38-10.83-15.92-16.7-37.75,24.21-77.45,31.72-120,19-32-9.55-57.25-28.6-75.68-56.34-37.29-56.13-28.45-130,20.92-176.61,48.57-45.85,122.88-50.17,177.19-10.4C833.56,322.13,861.48,399.11,815.52,474.76Zm-39-38.46c21.8-34.13,10.34-83.83-23.08-109.21a87.13,87.13,0,0,0-118.49,12c-29.88,33.94-28.38,85.68,3.42,118.06,27.59,28.09,77.72,35.24,103.87,13.57-5.66-5.13-11.51-9.88-16.71-15.25-11.35-11.71-11.81-27-1.53-37.43s25.67-10.26,37.5,1.12C766.81,424.24,771.27,430.25,776.51,436.3Z"></path><path class="cls-3" d="M430.26,258c16.24,0,26.67,7.66,32.31,22.46q27.65,72.55,55,145.21c9.29,24.52,18.72,49,27.69,73.64,4.26,11.71,1,22.55-7.83,29.5s-20.57,8.12-29.47,1.3c-4.6-3.53-8.37-8.93-10.86-14.26-4.6-9.85-7.61-20.44-12.14-30.32-1.29-2.81-5.54-6-8.48-6.05q-44.08-.67-88.19,0c-2.89,0-7,3.39-8.34,6.23-4.64,10.22-8.07,21-12.41,31.34-6.07,14.51-19.73,20.77-33.19,15.64-13.63-5.19-20.15-19-14.61-33.59q42-110.83,84.53-221.45C409.23,264.85,419.38,258.86,430.26,258Zm2.51,88.52C422,374.83,412.1,400.82,402,427.34H463.3Z"></path><path class="cls-3" d="M226.35,309.19v59.33h27.41c10.26,0,20.52-.24,30.77.11,14.81.49,25.56,11.2,25.74,25.11.19,14.35-10.74,25.53-26,25.88-15.72.37-31.46.1-47.19.11H226.12v78.53c0,3.75.14,7.51-.09,11.25-.92,14.52-12.11,25.18-26,24.94-13.51-.23-24.41-10.7-25.08-24.78-.47-9.87-.14-19.78-.14-29.67q0-95.17,0-190.35c0-22.34,9.34-31.65,31.68-31.68,27.36,0,54.71-.08,82.07,0,17.26.06,28.67,10.05,29,25.06.33,15.38-11.34,26-29,26.09C268.11,309.27,247.67,309.19,226.35,309.19Z"></path></svg>