<svg xmlns="http://www.w3.org/2000/svg" xmlns:xlink="http://www.w3.org/1999/xlink" width="380" viewBox="0 0 285 289.499996" height="386" preserveAspectRatio="xMidYMid meet"><defs><clipPath id="2b255af33f"><path d="M 114 140 L 199 140 L 199 188.183594 L 114 188.183594 Z M 114 140 " clip-rule="nonzero"></path></clipPath><clipPath id="f756b9c8bb"><path d="M 52.316406 25 L 108 25 L 108 81 L 52.316406 81 Z M 52.316406 25 " clip-rule="nonzero"></path></clipPath><clipPath id="c98df68993"><path d="M 0.34375 168 L 284.105469 168 L 284.105469 195 L 0.34375 195 Z M 0.34375 168 " clip-rule="nonzero"></path></clipPath><clipPath id="7849e6a3db"><path d="M 33 101.222656 L 261 101.222656 L 261 182 L 33 182 Z M 33 101.222656 " clip-rule="nonzero"></path></clipPath></defs><path fill="#6e6d6d" d="M 156.070312 2.753906 C 156.070312 2.753906 148.472656 0.441406 140.207031 5.84375 C 131.9375 11.242188 128.550781 19.136719 127.65625 24.761719 C 126.761719 30.421875 126.652344 33.476562 128.585938 30.871094 C 128.585938 30.871094 129.667969 36.566406 126.984375 42.414062 C 124.304688 48.261719 120.953125 52.136719 121.363281 58.503906 C 121.808594 64.871094 124.976562 67.03125 125.832031 66.695312 C 126.6875 66.359375 125.347656 61.707031 126.875 59.472656 C 126.875 59.472656 127.320312 63.753906 130.488281 65.617188 C 133.652344 67.480469 134.582031 65.46875 135.625 64.277344 C 135.625 64.277344 137.191406 66.695312 142.515625 66.996094 C 147.839844 67.292969 178.714844 74.628906 185.046875 61.257812 C 185.046875 61.257812 185.789062 59.84375 186.015625 61.816406 C 186.238281 63.792969 185.863281 65.429688 187.355469 65.167969 C 188.84375 64.945312 191.675781 62.003906 191.191406 55.894531 C 190.742188 49.789062 187.503906 46.808594 184.824219 40.441406 C 182.214844 34.257812 182.996094 29.15625 182.253906 23.570312 C 181.246094 15.898438 172.53125 0.257812 156.070312 2.753906 Z M 156.070312 2.753906 " fill-opacity="1" fill-rule="evenodd"></path><g clip-path="url(#2b255af33f)"><path fill="#ef484a" d="M 121.398438 151.273438 C 121.398438 151.273438 113.800781 172.761719 114.175781 187.769531 L 198.007812 188.03125 C 198.007812 188.03125 199.234375 173.507812 189.292969 150.378906 C 179.832031 128.332031 121.398438 151.273438 121.398438 151.273438 Z M 121.398438 151.273438 " fill-opacity="1" fill-rule="evenodd"></path></g><path fill="#f5c2a9" d="M 134.507812 27.40625 C 134.507812 27.40625 134.507812 36.976562 135.214844 42.75 C 135.925781 48.558594 136.855469 52.507812 145.121094 58.128906 C 145.121094 58.128906 146.164062 64.609375 141.398438 66.0625 L 138.195312 75.300781 L 149.628906 93.621094 L 171.378906 75.859375 L 171.9375 65.320312 C 171.9375 65.320312 167.246094 63.085938 166.910156 59.621094 C 166.5 55.226562 166.871094 47.851562 166.871094 47.851562 C 166.871094 47.851562 168.136719 46.324219 168.585938 45.394531 C 168.660156 45.246094 170.855469 46.660156 172.421875 45.132812 C 175.734375 41.855469 176.035156 36.269531 173.984375 33.625 C 172.382812 31.578125 169.367188 31.167969 167.878906 34.632812 C 167.878906 34.632812 165.160156 23.382812 151.976562 12.917969 C 151.976562 12.917969 150.300781 20.703125 145.347656 23.53125 C 141.621094 25.691406 141.285156 23.867188 141.472656 22.453125 C 141.511719 22.453125 139.425781 25.769531 134.507812 27.40625 Z M 134.507812 27.40625 " fill-opacity="1" fill-rule="evenodd"></path><path fill="#ecf0f7" d="M 141.4375 66.0625 C 141.4375 66.0625 143.929688 77.609375 150.558594 88.59375 C 150.558594 88.59375 162.140625 80.625 171.972656 65.320312 C 171.972656 65.320312 186.609375 68.820312 195.472656 74.332031 C 199.644531 76.9375 203.144531 83.753906 206.945312 96.414062 C 208.621094 102.078125 216.8125 113.472656 219.828125 120.324219 C 220.425781 121.628906 221.503906 128.367188 221.429688 130.34375 C 221.28125 134.066406 219.121094 137.902344 218.453125 139.09375 C 217.1875 141.441406 213.273438 144.382812 206.199219 146.542969 C 206.199219 146.542969 203.777344 147.734375 198.042969 142.445312 C 195.585938 140.175781 190.261719 127.773438 190.261719 127.773438 C 190.261719 127.773438 188.546875 139.019531 188.808594 143.265625 C 189.105469 147.921875 191.300781 151.980469 190.707031 153.058594 C 190.183594 154.027344 174.917969 160.398438 155.960938 158.980469 C 137.003906 157.566406 120.542969 153.320312 120.28125 151.980469 C 120.023438 150.601562 122.925781 141.886719 122.40625 134.699219 C 122.40625 134.699219 117.414062 142.296875 114.136719 143.488281 C 110.859375 144.644531 104.417969 144.011719 100.359375 142.1875 C 95.890625 140.210938 96.074219 139.46875 94.847656 133.695312 C 93.914062 129.410156 96.820312 127.921875 97.898438 127.25 C 98.980469 126.582031 106.839844 112.691406 107.210938 110.492188 C 108.550781 102.300781 112.164062 88.183594 115.328125 82.003906 C 119.386719 74.144531 125.570312 69.5625 141.4375 66.0625 Z M 141.4375 66.0625 " fill-opacity="1" fill-rule="evenodd"></path><path fill="#6e6d6d" d="M 145.832031 33.066406 C 145.832031 33.066406 146.6875 35.933594 145.347656 39.511719 C 144.898438 40.703125 144.9375 41.519531 145.195312 42.078125 C 145.457031 42.636719 145.980469 42.972656 146.574219 43.121094 C 147.355469 43.308594 148.324219 43.234375 148.957031 43.195312 C 149.183594 43.160156 149.332031 42.972656 149.332031 42.75 C 149.292969 42.527344 149.109375 42.378906 148.882812 42.378906 C 148.289062 42.414062 147.46875 42.527344 146.761719 42.339844 C 146.390625 42.230469 146.054688 42.078125 145.90625 41.746094 C 145.71875 41.335938 145.753906 40.738281 146.089844 39.808594 C 147.542969 35.972656 146.613281 32.84375 146.613281 32.84375 C 146.539062 32.621094 146.3125 32.507812 146.089844 32.582031 C 145.90625 32.621094 145.792969 32.84375 145.832031 33.066406 Z M 145.832031 33.066406 " fill-opacity="1" fill-rule="evenodd"></path><path fill="#6e6d6d" d="M 138.195312 28.636719 C 138.195312 28.636719 140.652344 27.40625 142.777344 29.046875 C 142.960938 29.195312 143.222656 29.15625 143.335938 28.96875 C 143.484375 28.785156 143.445312 28.523438 143.261719 28.410156 C 140.726562 26.511719 137.824219 27.925781 137.824219 27.925781 C 137.636719 28.039062 137.523438 28.261719 137.636719 28.488281 C 137.75 28.671875 138.007812 28.746094 138.195312 28.636719 Z M 138.195312 28.636719 " fill-opacity="1" fill-rule="evenodd"></path><path fill="#6e6d6d" d="M 153.019531 28.152344 C 153.019531 28.152344 155.625 26.476562 158.492188 28.078125 C 158.679688 28.1875 158.9375 28.113281 159.050781 27.925781 C 159.164062 27.742188 159.089844 27.480469 158.902344 27.367188 C 155.585938 25.507812 152.570312 27.445312 152.570312 27.445312 C 152.386719 27.554688 152.308594 27.816406 152.460938 28.003906 C 152.570312 28.226562 152.832031 28.261719 153.019531 28.152344 Z M 153.019531 28.152344 " fill-opacity="1" fill-rule="evenodd"></path><path fill="#6e6d6d" d="M 142.402344 32.695312 C 142.402344 32.945312 142.375 33.1875 142.316406 33.421875 C 142.257812 33.652344 142.175781 33.859375 142.066406 34.039062 C 141.957031 34.214844 141.832031 34.351562 141.691406 34.449219 C 141.550781 34.546875 141.402344 34.59375 141.25 34.59375 C 141.097656 34.59375 140.949219 34.546875 140.808594 34.449219 C 140.667969 34.351562 140.542969 34.214844 140.433594 34.039062 C 140.324219 33.859375 140.242188 33.652344 140.183594 33.421875 C 140.125 33.1875 140.09375 32.945312 140.09375 32.695312 C 140.09375 32.441406 140.125 32.199219 140.183594 31.96875 C 140.242188 31.734375 140.324219 31.53125 140.433594 31.351562 C 140.542969 31.171875 140.667969 31.035156 140.808594 30.941406 C 140.949219 30.84375 141.097656 30.796875 141.25 30.796875 C 141.402344 30.796875 141.550781 30.84375 141.691406 30.941406 C 141.832031 31.035156 141.957031 31.171875 142.066406 31.351562 C 142.175781 31.53125 142.257812 31.734375 142.316406 31.96875 C 142.375 32.199219 142.402344 32.441406 142.402344 32.695312 Z M 142.402344 32.695312 " fill-opacity="1" fill-rule="nonzero"></path><path fill="#6e6d6d" d="M 157.523438 32.359375 C 157.523438 32.613281 157.496094 32.855469 157.4375 33.085938 C 157.378906 33.320312 157.292969 33.523438 157.1875 33.703125 C 157.078125 33.878906 156.953125 34.019531 156.8125 34.113281 C 156.671875 34.210938 156.523438 34.257812 156.371094 34.257812 C 156.214844 34.257812 156.070312 34.210938 155.929688 34.113281 C 155.785156 34.019531 155.660156 33.878906 155.554688 33.703125 C 155.445312 33.523438 155.363281 33.320312 155.304688 33.085938 C 155.246094 32.855469 155.214844 32.613281 155.214844 32.359375 C 155.214844 32.109375 155.246094 31.867188 155.304688 31.632812 C 155.363281 31.398438 155.445312 31.195312 155.554688 31.015625 C 155.660156 30.839844 155.785156 30.699219 155.929688 30.605469 C 156.070312 30.507812 156.214844 30.460938 156.371094 30.460938 C 156.523438 30.460938 156.671875 30.507812 156.8125 30.605469 C 156.953125 30.699219 157.078125 30.839844 157.1875 31.015625 C 157.292969 31.195312 157.378906 31.398438 157.4375 31.632812 C 157.496094 31.867188 157.523438 32.109375 157.523438 32.359375 Z M 157.523438 32.359375 " fill-opacity="1" fill-rule="nonzero"></path><path fill="#6e6d6d" d="M 136.59375 69.863281 C 136.59375 69.863281 131.714844 79.878906 131.902344 89.117188 C 131.902344 89.117188 131.902344 89.710938 132.199219 90.269531 C 132.386719 90.679688 132.757812 91.050781 133.28125 91.164062 C 133.613281 91.238281 134.023438 91.203125 134.546875 91.015625 C 135.214844 90.753906 136.109375 90.195312 137.265625 89.078125 C 138.53125 87.886719 139.722656 86.582031 140.914062 85.765625 C 141.621094 85.28125 142.367188 84.980469 143.148438 85.09375 C 143.78125 85.167969 144.453125 85.539062 145.160156 86.210938 C 145.90625 86.957031 146.722656 88.109375 147.582031 89.710938 C 147.691406 89.898438 147.914062 89.972656 148.140625 89.898438 C 148.324219 89.785156 148.398438 89.527344 148.324219 89.339844 C 146.464844 85.800781 144.789062 84.460938 143.261719 84.273438 C 142.292969 84.164062 141.398438 84.5 140.503906 85.09375 C 139.277344 85.914062 138.046875 87.253906 136.742188 88.484375 C 135.847656 89.300781 135.179688 89.824219 134.582031 90.085938 C 134.097656 90.308594 133.765625 90.382812 133.464844 90.34375 C 133.207031 90.308594 133.054688 90.085938 132.945312 89.898438 C 132.757812 89.527344 132.757812 89.117188 132.757812 89.117188 C 132.570312 80.066406 137.375 70.234375 137.375 70.234375 C 137.488281 70.046875 137.375 69.789062 137.191406 69.675781 C 136.964844 69.601562 136.707031 69.675781 136.59375 69.863281 Z M 136.59375 69.863281 " fill-opacity="1" fill-rule="evenodd"></path><path fill="#6e6d6d" d="M 177.261719 70.046875 C 177.261719 70.046875 176.515625 85.652344 174.804688 90.121094 C 174.617188 90.644531 174.394531 90.976562 174.171875 91.238281 C 173.984375 91.425781 173.800781 91.535156 173.613281 91.574219 C 173.164062 91.648438 172.644531 91.351562 172.121094 90.867188 C 170.820312 89.75 169.328125 87.738281 167.765625 86.359375 C 166.386719 85.167969 165.160156 84.273438 163.632812 84.164062 C 162.476562 84.050781 161.210938 84.347656 159.609375 85.28125 C 158.082031 86.136719 156.222656 87.589844 153.949219 89.785156 C 153.800781 89.933594 153.761719 90.195312 153.949219 90.382812 C 154.097656 90.53125 154.359375 90.570312 154.542969 90.382812 C 156.78125 88.257812 158.566406 86.84375 160.054688 85.988281 C 161.472656 85.167969 162.625 84.871094 163.632812 84.980469 C 164.972656 85.09375 166.089844 85.914062 167.28125 86.992188 C 168.398438 87.960938 169.480469 89.300781 170.484375 90.34375 C 171.191406 91.089844 171.863281 91.722656 172.496094 92.09375 C 172.980469 92.355469 173.464844 92.46875 173.910156 92.355469 C 174.542969 92.207031 175.140625 91.648438 175.625 90.382812 C 177.335938 85.875 178.15625 70.046875 178.15625 70.046875 C 178.15625 69.824219 178.007812 69.636719 177.785156 69.636719 C 177.484375 69.636719 177.300781 69.824219 177.261719 70.046875 Z M 177.261719 70.046875 " fill-opacity="1" fill-rule="evenodd"></path><path fill="#6e6d6d" d="M 151.230469 100.660156 C 151.230469 100.898438 151.183594 101.125 151.09375 101.34375 C 151.003906 101.5625 150.875 101.757812 150.707031 101.925781 C 150.539062 102.09375 150.347656 102.222656 150.125 102.3125 C 149.90625 102.402344 149.679688 102.449219 149.441406 102.449219 C 149.207031 102.449219 148.976562 102.402344 148.757812 102.3125 C 148.539062 102.222656 148.347656 102.09375 148.179688 101.925781 C 148.011719 101.757812 147.882812 101.5625 147.792969 101.34375 C 147.699219 101.125 147.65625 100.898438 147.65625 100.660156 C 147.65625 100.425781 147.699219 100.195312 147.792969 99.976562 C 147.882812 99.757812 148.011719 99.566406 148.179688 99.398438 C 148.347656 99.230469 148.539062 99.101562 148.757812 99.007812 C 148.976562 98.917969 149.207031 98.875 149.441406 98.875 C 149.679688 98.875 149.90625 98.917969 150.125 99.007812 C 150.347656 99.101562 150.539062 99.230469 150.707031 99.398438 C 150.875 99.566406 151.003906 99.757812 151.09375 99.976562 C 151.183594 100.195312 151.230469 100.425781 151.230469 100.660156 Z M 151.230469 100.660156 " fill-opacity="1" fill-rule="nonzero"></path><path fill="#6e6d6d" d="M 150.335938 139.578125 C 150.335938 139.816406 150.292969 140.042969 150.199219 140.261719 C 150.109375 140.480469 149.980469 140.675781 149.8125 140.84375 C 149.644531 141.011719 149.453125 141.140625 149.234375 141.230469 C 149.015625 141.320312 148.785156 141.367188 148.550781 141.367188 C 148.3125 141.367188 148.082031 141.320312 147.863281 141.230469 C 147.644531 141.140625 147.453125 141.011719 147.285156 140.84375 C 147.117188 140.675781 146.988281 140.480469 146.898438 140.261719 C 146.808594 140.042969 146.761719 139.816406 146.761719 139.578125 C 146.761719 139.339844 146.808594 139.113281 146.898438 138.894531 C 146.988281 138.675781 147.117188 138.480469 147.285156 138.316406 C 147.453125 138.148438 147.644531 138.019531 147.863281 137.925781 C 148.082031 137.835938 148.3125 137.792969 148.550781 137.792969 C 148.785156 137.792969 149.015625 137.835938 149.234375 137.925781 C 149.453125 138.019531 149.644531 138.148438 149.8125 138.316406 C 149.980469 138.480469 150.109375 138.675781 150.199219 138.894531 C 150.292969 139.113281 150.335938 139.339844 150.335938 139.578125 Z M 150.335938 139.578125 " fill-opacity="1" fill-rule="nonzero"></path><path fill="#6e6d6d" d="M 150.375 119.65625 C 150.375 119.890625 150.328125 120.121094 150.238281 120.339844 C 150.148438 120.558594 150.019531 120.75 149.851562 120.917969 C 149.683594 121.085938 149.488281 121.214844 149.269531 121.304688 C 149.050781 121.398438 148.824219 121.441406 148.585938 121.441406 C 148.347656 121.441406 148.121094 121.398438 147.902344 121.304688 C 147.683594 121.214844 147.488281 121.085938 147.320312 120.917969 C 147.15625 120.75 147.023438 120.558594 146.933594 120.339844 C 146.84375 120.121094 146.796875 119.890625 146.796875 119.65625 C 146.796875 119.417969 146.84375 119.1875 146.933594 118.96875 C 147.023438 118.75 147.15625 118.558594 147.320312 118.390625 C 147.488281 118.222656 147.683594 118.09375 147.902344 118.003906 C 148.121094 117.914062 148.347656 117.867188 148.585938 117.867188 C 148.824219 117.867188 149.050781 117.914062 149.269531 118.003906 C 149.488281 118.09375 149.683594 118.222656 149.851562 118.390625 C 150.019531 118.558594 150.148438 118.75 150.238281 118.96875 C 150.328125 119.1875 150.375 119.417969 150.375 119.65625 Z M 150.375 119.65625 " fill-opacity="1" fill-rule="nonzero"></path><path fill="#6e6d6d" d="M 204.261719 118.460938 C 204.261719 118.460938 199.53125 120.25 195.027344 123.972656 C 194.839844 124.125 194.839844 124.382812 194.988281 124.53125 C 195.136719 124.71875 195.398438 124.71875 195.546875 124.570312 C 199.90625 120.957031 204.5625 119.207031 204.5625 119.207031 C 204.785156 119.132812 204.894531 118.910156 204.785156 118.6875 C 204.710938 118.460938 204.449219 118.351562 204.261719 118.460938 Z M 204.261719 118.460938 " fill-opacity="1" fill-rule="evenodd"></path><path fill="#6e6d6d" d="M 120.246094 95.410156 C 120.246094 95.410156 118.496094 107.664062 119.3125 117.160156 C 119.796875 123.042969 121.585938 128.40625 122.105469 133.582031 C 122.144531 133.804688 122.332031 133.957031 122.554688 133.957031 C 122.777344 133.917969 122.925781 133.730469 122.925781 133.507812 C 122.40625 128.332031 120.617188 122.96875 120.132812 117.085938 C 119.351562 107.699219 121.0625 95.523438 121.0625 95.523438 C 121.101562 95.296875 120.953125 95.074219 120.730469 95.074219 C 120.503906 95.039062 120.28125 95.1875 120.246094 95.410156 Z M 120.246094 95.410156 " fill-opacity="1" fill-rule="evenodd"></path><path fill="#6e6d6d" d="M 107.320312 116.117188 C 107.320312 116.117188 110.449219 115.855469 112.871094 118.945312 C 115.441406 122.261719 116.222656 125.054688 116.222656 125.054688 C 116.296875 125.277344 116.519531 125.390625 116.746094 125.351562 C 116.96875 125.277344 117.078125 125.054688 117.042969 124.832031 C 117.042969 124.832031 116.222656 121.925781 113.542969 118.460938 C 110.859375 114.960938 107.285156 115.296875 107.285156 115.296875 C 107.0625 115.335938 106.875 115.519531 106.914062 115.742188 C 106.914062 116.003906 107.097656 116.152344 107.320312 116.117188 Z M 107.320312 116.117188 " fill-opacity="1" fill-rule="evenodd"></path><path fill="#6e6d6d" d="M 189.886719 100.398438 C 189.886719 100.398438 191.453125 107.699219 191.042969 114.476562 C 190.667969 120.621094 189.960938 126.730469 189.960938 126.730469 C 189.925781 126.953125 190.109375 127.140625 190.335938 127.175781 C 190.558594 127.214844 190.742188 127.027344 190.78125 126.804688 C 190.78125 126.804688 191.488281 120.660156 191.859375 114.476562 C 192.269531 107.625 190.707031 100.175781 190.707031 100.175781 C 190.667969 99.953125 190.445312 99.804688 190.222656 99.878906 C 189.960938 99.992188 189.851562 100.175781 189.886719 100.398438 Z M 189.886719 100.398438 " fill-opacity="1" fill-rule="evenodd"></path><path fill="#f5c2a9" d="M 92.984375 133.136719 C 89.371094 129.039062 86.726562 120.847656 84.492188 112.578125 C 82.183594 104.125 80.917969 95.78125 75.964844 87.402344 C 73.394531 83.082031 71.382812 81.519531 70.378906 76.789062 C 69.371094 72.058594 95.628906 72.914062 95.628906 72.914062 C 95.628906 72.914062 92.613281 85.390625 92.539062 89.898438 C 92.460938 94.40625 99.875 104.871094 102.480469 108.929688 C 106.128906 114.589844 111.792969 119.839844 112.089844 124.457031 C 112.425781 129.113281 110.710938 135.035156 109.742188 136.226562 C 108.8125 137.417969 103.1875 138.609375 101.476562 138.683594 C 99.539062 138.722656 95.664062 136.191406 92.984375 133.136719 Z M 92.984375 133.136719 " fill-opacity="1" fill-rule="evenodd"></path><g clip-path="url(#f756b9c8bb)"><path fill="#ef484a" d="M 80.136719 25.320312 C 95.332031 25.394531 107.582031 37.835938 107.507812 53.027344 C 107.433594 68.222656 94.996094 80.476562 79.800781 80.402344 C 64.605469 80.328125 52.351562 67.886719 52.425781 52.695312 C 52.539062 37.5 64.941406 25.210938 80.136719 25.320312 Z M 80.136719 25.320312 " fill-opacity="1" fill-rule="evenodd"></path></g><path fill="#ffffff" d="M 79.988281 47.515625 L 87.546875 39.957031 C 88.292969 39.210938 89.519531 39.210938 90.300781 39.957031 C 91.085938 40.738281 92.089844 41.746094 92.871094 42.527344 C 93.617188 43.269531 93.617188 44.5 92.871094 45.28125 L 85.3125 52.84375 L 92.871094 60.402344 C 93.617188 61.148438 93.617188 62.375 92.871094 63.160156 C 92.089844 63.941406 91.085938 64.945312 90.300781 65.726562 C 89.558594 66.472656 88.328125 66.472656 87.546875 65.726562 L 79.988281 58.167969 L 72.425781 65.726562 C 71.683594 66.472656 70.453125 66.472656 69.671875 65.726562 C 68.886719 64.945312 67.882812 63.941406 67.101562 63.160156 C 66.355469 62.414062 66.355469 61.183594 67.101562 60.402344 L 74.660156 52.84375 L 67.101562 45.28125 C 66.355469 44.539062 66.355469 43.308594 67.101562 42.527344 C 67.882812 41.746094 68.886719 40.738281 69.671875 39.957031 C 70.414062 39.210938 71.644531 39.210938 72.425781 39.957031 C 72.425781 39.957031 79.988281 47.515625 79.988281 47.515625 Z M 79.988281 47.515625 " fill-opacity="1" fill-rule="evenodd"></path><path fill="#f5c2a9" d="M 87.175781 83.53125 C 87.175781 83.53125 87.585938 80.105469 92.613281 76.640625 C 92.613281 76.640625 93.394531 75.484375 93.617188 73.472656 C 93.839844 71.5 95.292969 69.15625 97.191406 68.671875 C 99.5 68.074219 98.683594 70.308594 98.71875 72.992188 C 98.757812 75.671875 99.242188 77.011719 97.230469 80.476562 C 95.179688 83.941406 93.355469 86.285156 92.5 89.898438 C 91.421875 94.515625 87.175781 83.53125 87.175781 83.53125 Z M 87.175781 83.53125 " fill-opacity="1" fill-rule="evenodd"></path><path fill="#6e6d6d" d="M 87.992188 83.679688 C 87.992188 83.679688 88.402344 80.402344 93.28125 77.085938 C 93.46875 76.976562 93.503906 76.714844 93.394531 76.527344 C 93.28125 76.34375 93.019531 76.304688 92.835938 76.417969 C 87.585938 79.992188 87.210938 83.566406 87.210938 83.566406 C 87.175781 83.789062 87.359375 83.976562 87.585938 84.015625 C 87.734375 84.050781 87.957031 83.902344 87.992188 83.679688 Z M 87.992188 83.679688 " fill-opacity="1" fill-rule="evenodd"></path><path fill="#6e6d6d" d="M 147.433594 48.632812 C 146.796875 47.964844 146.574219 46.363281 147.914062 46.324219 C 149.257812 46.289062 150.074219 47.742188 149.332031 48.859375 C 148.808594 49.640625 148.066406 49.304688 147.433594 48.632812 Z M 147.433594 48.632812 " fill-opacity="1" fill-rule="evenodd"></path><path fill="#6e6d6d" d="M 145.90625 58.839844 C 145.90625 58.839844 148.214844 60.328125 152.570312 58.914062 C 156.59375 57.609375 161.65625 54.371094 165.011719 50.347656 C 165.160156 50.160156 165.121094 49.902344 164.972656 49.789062 C 164.785156 49.640625 164.527344 49.675781 164.414062 49.824219 C 161.136719 53.734375 156.257812 56.863281 152.347656 58.128906 C 148.472656 59.398438 146.390625 58.128906 146.390625 58.128906 C 146.203125 58.019531 145.941406 58.054688 145.832031 58.28125 C 145.644531 58.464844 145.71875 58.726562 145.90625 58.839844 Z M 169.664062 41.484375 C 169.589844 41.296875 169.441406 41.371094 169.40625 41.519531 C 169.328125 41.746094 169.40625 41.96875 169.628906 42.042969 L 169.777344 42.078125 L 169.628906 42.042969 C 169.703125 42.078125 170.148438 42.230469 170.597656 42.230469 C 171.003906 42.230469 171.414062 42.078125 171.75 41.707031 C 172.53125 40.8125 173.164062 39.101562 172.679688 37.460938 C 172.496094 36.867188 172.199219 36.492188 171.824219 36.308594 C 171.304688 36.007812 170.707031 36.082031 170.222656 36.34375 C 169.886719 36.53125 169.664062 36.792969 169.554688 37.089844 C 169.480469 37.3125 169.589844 37.535156 169.777344 37.609375 C 170 37.683594 170.222656 37.574219 170.296875 37.386719 C 170.335938 37.238281 170.484375 37.125 170.632812 37.050781 C 170.855469 36.902344 171.191406 36.867188 171.453125 37.015625 C 171.640625 37.125 171.824219 37.351562 171.898438 37.683594 C 172.273438 39.027344 171.789062 40.441406 171.15625 41.148438 C 170.929688 41.371094 170.632812 41.410156 170.410156 41.410156 C 170.148438 41.371094 169.964844 41.296875 169.925781 41.296875 C 169.738281 41.222656 169.664062 41.335938 169.664062 41.484375 Z M 169.664062 41.484375 " fill-opacity="1" fill-rule="evenodd"></path><path fill="#f5c2a9" d="M 199.234375 127.585938 C 198.9375 126.023438 200.761719 118.238281 203.183594 110.417969 C 205.601562 102.597656 207.914062 96.082031 208.695312 89.300781 C 209.289062 84.199219 206.199219 75.785156 206.347656 72.839844 C 206.570312 67.664062 206.945312 64.203125 212.269531 65.394531 C 212.269531 65.394531 214.875 52.917969 215.882812 49.601562 C 216.925781 46.289062 220.835938 45.207031 220.164062 50.757812 C 219.457031 56.34375 218.601562 62.636719 218.601562 62.636719 C 218.601562 62.636719 220.5 60.289062 222.808594 61.742188 C 224.449219 62.785156 224.113281 64.648438 224.113281 64.648438 C 224.113281 64.648438 225.378906 63.269531 227.09375 64.910156 C 228.285156 66.0625 228.023438 67.703125 228.023438 67.703125 C 228.023438 67.703125 229.625 66.359375 231.003906 68.558594 C 232.304688 70.644531 231.710938 72.992188 230.332031 76.304688 C 228.953125 79.621094 223.480469 86.917969 222.511719 89.265625 C 221.542969 91.609375 221.46875 100.625 221.914062 109.859375 C 222.363281 119.058594 220.425781 128.183594 217.746094 133.730469 C 215.027344 139.28125 212.492188 138.5 210.148438 138.683594 C 207.839844 138.832031 202.660156 137.308594 201.691406 135.035156 C 200.726562 132.761719 199.53125 129.1875 199.234375 127.585938 Z M 199.234375 127.585938 " fill-opacity="1" fill-rule="evenodd"></path><path fill="#6e6d6d" d="M 217.445312 66.324219 C 215.433594 65.765625 213.050781 65.167969 213.050781 65.167969 C 212.828125 65.132812 212.605469 65.242188 212.566406 65.46875 C 212.53125 65.691406 212.640625 65.914062 212.867188 65.953125 C 212.867188 65.953125 215.917969 66.695312 218.042969 67.328125 C 218.898438 67.589844 219.570312 67.8125 219.792969 67.960938 C 219.867188 68 219.867188 68.113281 219.867188 68.1875 C 219.867188 68.410156 219.828125 68.632812 219.71875 68.894531 C 219.496094 69.453125 219.046875 70.085938 218.378906 70.53125 C 218.378906 70.53125 218.339844 70.53125 218.339844 70.570312 C 217.96875 70.792969 217.558594 70.980469 217.109375 71.089844 C 215.398438 71.425781 213.910156 70.980469 213.199219 70.90625 C 212.867188 70.867188 212.640625 70.980469 212.492188 71.089844 C 212.382812 71.203125 212.269531 71.390625 212.34375 71.648438 C 212.382812 71.761719 212.417969 71.949219 212.566406 72.171875 C 212.792969 72.542969 213.125 73.027344 213.535156 73.660156 C 214.355469 74.890625 215.285156 76.601562 215.101562 78.390625 C 215.0625 78.613281 215.25 78.800781 215.472656 78.835938 C 215.695312 78.875 215.882812 78.6875 215.917969 78.464844 C 216.144531 76.492188 215.136719 74.589844 214.242188 73.214844 C 213.910156 72.691406 213.574219 72.246094 213.386719 71.910156 C 213.351562 71.875 213.3125 71.796875 213.3125 71.761719 C 213.386719 71.761719 213.460938 71.761719 213.5 71.796875 C 214.316406 71.949219 215.734375 72.246094 217.296875 71.910156 C 217.746094 71.835938 218.152344 71.6875 218.488281 71.464844 C 218.710938 71.761719 219.121094 72.097656 219.644531 72.207031 C 220.054688 72.28125 220.5 72.246094 221.058594 71.949219 C 221.097656 71.949219 221.132812 71.910156 221.171875 71.875 C 221.171875 72.023438 221.207031 72.171875 221.246094 72.355469 C 221.355469 72.878906 221.582031 73.398438 222.101562 73.773438 C 222.773438 74.257812 223.441406 74.332031 224.148438 73.957031 C 224.039062 74.480469 224.074219 75.039062 224.335938 75.484375 C 225.230469 76.902344 226.832031 76.640625 227.613281 76.007812 C 228.394531 75.410156 229.585938 73.324219 229.960938 72.730469 C 230.070312 72.542969 230.035156 72.28125 229.847656 72.171875 C 229.660156 72.058594 229.402344 72.097656 229.289062 72.28125 C 228.953125 72.804688 227.835938 74.777344 227.128906 75.335938 C 226.644531 75.746094 225.601562 75.933594 225.042969 75.039062 C 224.859375 74.742188 224.894531 74.367188 224.96875 74.03125 C 225.117188 73.4375 225.417969 72.878906 225.417969 72.878906 C 225.417969 72.878906 225.417969 72.839844 225.453125 72.839844 C 225.640625 72.65625 225.789062 72.433594 225.976562 72.171875 C 227.203125 70.457031 228.171875 68.335938 228.171875 68.335938 C 228.285156 68.113281 228.171875 67.886719 227.984375 67.777344 C 227.761719 67.664062 227.539062 67.777344 227.425781 67.960938 C 227.425781 67.960938 226.496094 69.972656 225.304688 71.648438 C 224.859375 72.28125 224.449219 72.730469 224.039062 72.992188 C 223.554688 73.324219 223.070312 73.324219 222.621094 72.992188 C 222.289062 72.765625 222.175781 72.394531 222.101562 72.097656 C 221.988281 71.539062 222.101562 71.054688 222.101562 71.054688 C 222.140625 70.941406 222.101562 70.832031 222.0625 70.753906 C 222.175781 70.53125 222.324219 70.273438 222.472656 70.011719 C 223.441406 68.074219 224.449219 65.167969 224.449219 65.167969 C 224.523438 64.945312 224.410156 64.722656 224.1875 64.648438 C 223.964844 64.574219 223.738281 64.683594 223.664062 64.910156 C 223.664062 64.910156 222.699219 67.738281 221.730469 69.636719 C 221.503906 70.121094 221.246094 70.53125 221.058594 70.832031 C 220.945312 70.980469 220.871094 71.089844 220.761719 71.164062 C 220.425781 71.351562 220.164062 71.390625 219.941406 71.351562 C 219.644531 71.277344 219.457031 71.089844 219.308594 70.941406 C 219.570312 70.71875 219.792969 70.496094 220.015625 70.234375 C 220.648438 69.453125 220.945312 68.558594 220.871094 67.960938 C 220.835938 67.589844 220.6875 67.328125 220.464844 67.179688 C 220.203125 66.996094 219.421875 66.734375 218.488281 66.4375 C 218.453125 66.4375 218.453125 66.4375 218.414062 66.4375 C 218.453125 66.398438 218.488281 66.324219 218.488281 66.285156 L 219.195312 63.308594 C 219.234375 63.085938 219.121094 62.859375 218.898438 62.824219 C 218.675781 62.785156 218.453125 62.898438 218.414062 63.121094 L 217.707031 66.101562 C 217.445312 66.25 217.445312 66.285156 217.445312 66.324219 Z M 217.445312 66.324219 " fill-opacity="1" fill-rule="evenodd"></path><path fill="#6e6d6d" d="M 212.566406 42.339844 C 212.566406 42.339844 217.410156 38.132812 225.378906 42.339844 C 225.566406 42.453125 225.824219 42.378906 225.9375 42.152344 C 226.050781 41.96875 225.976562 41.707031 225.75 41.59375 C 217.1875 37.089844 212.007812 41.707031 212.007812 41.707031 C 211.824219 41.855469 211.824219 42.117188 211.972656 42.265625 C 212.15625 42.488281 212.417969 42.488281 212.566406 42.339844 Z M 212.566406 42.339844 " fill-opacity="1" fill-rule="evenodd"></path><path fill="#6e6d6d" d="M 214.800781 36.34375 C 214.800781 36.34375 221.988281 33.515625 228.542969 39.734375 C 228.691406 39.882812 228.953125 39.882812 229.140625 39.734375 C 229.289062 39.585938 229.289062 39.324219 229.140625 39.136719 C 222.214844 32.507812 214.542969 35.5625 214.542969 35.5625 C 214.316406 35.636719 214.242188 35.898438 214.316406 36.082031 C 214.355469 36.308594 214.578125 36.417969 214.800781 36.34375 Z M 214.800781 36.34375 " fill-opacity="1" fill-rule="evenodd"></path><g clip-path="url(#c98df68993)"><path fill="#d9d9d9" d="M 283.925781 184.222656 C 282.425781 180.707031 267.84375 171.996094 264.28125 170.628906 C 261.355469 169.507812 258.15625 169.378906 255.03125 169.285156 C 205.054688 167.542969 156.125 168.269531 106.128906 169.21875 C 87.230469 169.574219 67.238281 169.003906 48.351562 169.734375 C 39.726562 170.070312 30.980469 170.476562 22.804688 173.164062 C 14.628906 175.851562 1.777344 187.558594 1.777344 187.558594 C 1.523438 187.769531 1.308594 188.011719 1.128906 188.289062 C 0.949219 188.566406 0.816406 188.859375 0.726562 189.175781 C 0.636719 189.496094 0.597656 189.816406 0.605469 190.144531 C 0.613281 190.476562 0.671875 190.796875 0.773438 191.105469 C 1.445312 192.371094 3.121094 192.605469 4.539062 192.625 L 30.589844 192.875 C 32.558594 192.875 34.757812 194.328125 36.734375 194.339844 C 38.933594 194.339844 40.902344 192.957031 43.109375 192.996094 C 108.105469 193.480469 177.074219 193.320312 241.375 190.496094 C 243.824219 190.386719 245.632812 193.324219 248.066406 193.183594 C 249.855469 193.105469 252.269531 189.972656 254.050781 189.882812 C 262.902344 189.4375 271.640625 188.9375 280.269531 188.390625 C 281.96875 188.277344 284.074219 187.613281 284.300781 185.925781 C 284.328125 185.324219 284.203125 184.757812 283.925781 184.222656 Z M 283.925781 184.222656 " fill-opacity="1" fill-rule="nonzero"></path></g><path fill="#b3c2e0" d="M 129.652344 135.683594 C 128.726562 136.238281 127.730469 136.566406 126.660156 136.667969 C 126.660156 138.089844 126.570312 139.730469 126.53125 140.210938 C 125.683594 150.691406 124.070312 162.265625 123.070312 170.308594 C 121.503906 172.09375 117.207031 172.828125 113.515625 172.9375 C 108.6875 173.078125 103.128906 172.316406 102.625 170.917969 C 102.625 170.917969 97.675781 148.875 97.050781 137.125 C 94.765625 136.789062 93.691406 136.066406 93.097656 134.917969 C 92.890625 134.382812 92.816406 133.828125 92.871094 133.257812 C 92.929688 132.683594 93.113281 132.15625 93.421875 131.671875 C 94.804688 129.929688 100.816406 129.949219 104.851562 129.976562 L 125.265625 130.136719 C 126.644531 130.136719 128.117188 130.179688 129.300781 130.8125 C 129.519531 130.921875 129.71875 131.058594 129.902344 131.222656 C 130.085938 131.386719 130.246094 131.574219 130.382812 131.777344 C 130.515625 131.980469 130.625 132.199219 130.703125 132.433594 C 130.78125 132.664062 130.832031 132.90625 130.847656 133.148438 C 130.867188 133.394531 130.851562 133.636719 130.808594 133.878906 C 130.761719 134.121094 130.6875 134.351562 130.582031 134.574219 C 130.476562 134.796875 130.347656 135 130.1875 135.1875 C 130.03125 135.378906 129.851562 135.542969 129.652344 135.683594 Z M 82.589844 157.871094 C 67.175781 157.367188 41.738281 157.730469 31.828125 157.972656 C 31.300781 157.933594 30.855469 158.101562 30.484375 158.476562 C 30.074219 158.90625 30.167969 162.320312 30.421875 163.851562 C 30.535156 164.558594 31.605469 164.558594 31.605469 164.558594 C 45.253906 164.128906 76.203125 163.996094 81.964844 163.886719 C 82.429688 163.886719 82.765625 163.886719 82.925781 163.550781 C 83.121094 161.808594 83.183594 160.058594 83.109375 158.308594 C 83.09375 158.167969 83.03125 158.054688 82.925781 157.96875 C 82.816406 157.878906 82.695312 157.839844 82.558594 157.851562 Z M 82.589844 157.871094 " fill-opacity="1" fill-rule="nonzero"></path><g clip-path="url(#7849e6a3db)"><path fill="#4267b2" d="M 86.207031 151.746094 C 86.246094 153.664062 86.148438 155.574219 85.914062 157.480469 C 85.75 157.816406 85.414062 157.808594 84.949219 157.816406 C 79.191406 157.929688 48.359375 157.574219 34.710938 158.011719 C 34.710938 158.011719 33.644531 158.011719 33.523438 157.339844 C 33.265625 155.777344 33.179688 152.363281 33.589844 151.960938 C 33.960938 151.589844 34.410156 151.421875 34.933594 151.457031 C 44.84375 151.214844 70.28125 150.859375 85.695312 151.355469 C 85.816406 151.351562 85.925781 151.386719 86.023438 151.460938 C 86.117188 151.535156 86.179688 151.628906 86.207031 151.746094 Z M 258.816406 103.550781 C 257.691406 102.378906 255.90625 102.207031 254.285156 102.207031 C 227.132812 101.257812 196.570312 102.796875 171.535156 102.730469 C 170.054688 102.632812 168.671875 102.953125 167.386719 103.691406 C 166.621094 104.175781 165.570312 106.003906 165.28125 107.316406 C 164.609375 110.527344 162.949219 118.179688 161.953125 124.691406 C 159.472656 140.875 156.320312 158.589844 155.6875 176.074219 C 149.832031 176.167969 122.316406 176.621094 120.816406 177.546875 C 119.316406 178.476562 120.265625 180.910156 120.265625 180.910156 C 126.316406 180.835938 140.226562 181.144531 156.292969 181.03125 C 187.21875 180.808594 226.769531 180.128906 238.398438 179.949219 C 248.066406 179.800781 249.792969 179.996094 250.726562 177.46875 C 251.835938 170.84375 260.003906 132.425781 260.003906 108.222656 C 260.003906 106.515625 259.929688 104.71875 258.816406 103.550781 Z M 258.816406 103.550781 " fill-opacity="1" fill-rule="nonzero"></path></g><path fill="#eaeaea" d="M 30.589844 192.875 L 43.109375 192.96875 C 37.058594 225.957031 30.738281 257.359375 26.195312 282.886719 C 24.847656 288.984375 20.238281 284.0625 20.652344 279.398438 C 23.222656 250.609375 27.296875 221.160156 30.589844 192.875 Z M 264.289062 279.398438 C 261.632812 249.59375 257.355469 219.074219 254.003906 189.878906 C 249.8125 190.085938 245.601562 190.285156 241.375 190.46875 C 247.5625 224.363281 254.089844 256.714844 258.75 282.886719 C 260.113281 288.984375 264.703125 284.050781 264.289062 279.398438 Z M 91.371094 163.710938 C 73.601562 164.148438 54.011719 163.660156 35.839844 164.527344 C 35.167969 164.527344 35.035156 164.863281 34.988281 165.398438 C 34.703125 168.417969 34.898438 173.398438 34.898438 176.484375 C 34.898438 177.351562 35.605469 177.359375 35.605469 177.359375 C 54.054688 178.164062 73.375 177.585938 92.023438 176.910156 C 92.417969 176.910156 92.898438 176.761719 92.902344 176.238281 C 92.855469 173.199219 92.863281 168.476562 92.445312 164.398438 C 92.371094 163.8125 91.667969 163.671875 91.371094 163.710938 Z M 209.972656 134.957031 C 209.753906 135.84375 209.664062 136.738281 209.710938 137.648438 C 209.925781 138.042969 212.125 138.089844 212.933594 138.050781 C 212.433594 140.019531 212.367188 142.117188 211.40625 143.90625 C 210.65625 145.289062 209.578125 146.328125 208.167969 147.019531 C 207.453125 147.335938 206.519531 147.421875 206.148438 148.128906 C 206.011719 148.472656 205.972656 148.828125 206.039062 149.191406 C 206.105469 149.554688 206.265625 149.875 206.519531 150.144531 C 207.054688 150.492188 207.644531 150.691406 208.28125 150.738281 C 210.101562 150.984375 212.515625 150.117188 214.101562 149.199219 C 215.835938 148.183594 216.871094 145.835938 217.09375 143.820312 C 217.242188 141.773438 216.871094 139.820312 215.984375 137.96875 C 216.964844 137.886719 217.882812 137.605469 218.742188 137.125 C 218.957031 136.605469 218.867188 135.019531 218.4375 134.5625 C 216.214844 135.003906 212.058594 134.957031 209.972656 134.957031 Z M 209.972656 134.957031 " fill-opacity="1" fill-rule="nonzero"></path><path fill="#ffffff" d="M 119.007812 149.511719 C 118.339844 149.472656 117.699219 149.316406 117.085938 149.042969 C 117.796875 148.882812 118.464844 148.53125 118.492188 147.820312 C 118.53125 147 117.941406 146.675781 117.273438 146.601562 L 118.214844 145.707031 L 118.886719 145.929688 C 119.386719 146.085938 119.601562 145.304688 119.101562 145.152344 L 118.90625 145.089844 C 119.09375 144.921875 119.207031 144.71875 119.242188 144.472656 C 119.34375 143.34375 117.503906 143.273438 116.777344 143.273438 C 116.164062 143.273438 114.707031 143.4375 115.324219 144.429688 C 115.660156 144.820312 116.082031 145.066406 116.589844 145.164062 C 116.84375 145.257812 117.105469 145.332031 117.363281 145.417969 L 115.921875 146.765625 C 115.78125 146.910156 115.761719 147.070312 115.863281 147.25 C 115.964844 147.425781 116.113281 147.488281 116.3125 147.4375 C 116.636719 147.308594 116.960938 147.308594 117.289062 147.4375 C 117.554688 147.4375 117.652344 147.53125 117.554688 147.765625 C 117.609375 148.015625 117.496094 148.148438 117.214844 148.164062 C 116.738281 148.332031 116.25 148.402344 115.746094 148.371094 C 115.316406 148.371094 115.238281 148.910156 115.539062 149.125 C 116.230469 149.605469 116.984375 149.945312 117.804688 150.140625 C 117.242188 150.414062 116.664062 150.664062 116.0625 150.898438 C 115.660156 151.058594 115.242188 151.289062 115.277344 151.792969 C 115.3125 152.296875 115.820312 152.585938 116.257812 152.679688 C 116.574219 152.746094 117.328125 152.539062 117.253906 153.171875 C 117.207031 153.582031 116.425781 154.039062 116.136719 154.238281 C 115.972656 154.347656 115.914062 154.5 115.96875 154.691406 C 116.019531 154.882812 116.148438 154.984375 116.347656 154.992188 C 116.871094 154.996094 117.269531 155.21875 117.542969 155.664062 C 117.605469 155.78125 117.640625 155.902344 117.652344 156.035156 C 117.660156 156.164062 117.636719 156.292969 117.589844 156.414062 C 117.539062 156.535156 117.46875 156.640625 117.371094 156.730469 C 117.273438 156.820312 117.164062 156.882812 117.039062 156.921875 C 116.824219 156.992188 116.734375 157.136719 116.765625 157.359375 C 116.792969 157.582031 116.921875 157.699219 117.144531 157.707031 C 117.503906 157.800781 117.550781 157.976562 117.28125 158.234375 C 117.246094 158.535156 117.089844 158.648438 116.816406 158.574219 C 116.375 158.574219 116.253906 159.300781 116.710938 159.367188 C 118.15625 159.578125 117.46875 160.585938 116.710938 161.136719 C 116.292969 161.441406 116.710938 162.140625 117.113281 161.808594 C 117.785156 161.324219 118.503906 160.734375 118.421875 159.792969 C 118.40625 159.402344 118.234375 159.101562 117.914062 158.886719 C 118.019531 158.773438 118.097656 158.644531 118.15625 158.5 C 118.210938 158.359375 118.238281 158.207031 118.238281 158.054688 C 118.238281 157.902344 118.210938 157.75 118.15625 157.609375 C 118.097656 157.464844 118.019531 157.335938 117.914062 157.222656 C 118.347656 156.808594 118.507812 156.304688 118.398438 155.710938 C 118.324219 155.398438 118.179688 155.121094 117.964844 154.882812 C 117.75 154.644531 117.492188 154.472656 117.1875 154.367188 C 117.933594 153.695312 118.699219 152.625 117.628906 152.054688 C 117.378906 151.945312 117.113281 151.886719 116.835938 151.886719 C 116.6875 151.886719 116.164062 151.933594 116.164062 151.777344 C 116.164062 151.625 116.589844 151.542969 116.675781 151.511719 C 117.5625 151.179688 118.40625 150.765625 119.210938 150.265625 C 119.390625 150.164062 119.453125 150.011719 119.398438 149.8125 C 119.34375 149.613281 119.214844 149.511719 119.007812 149.511719 Z M 116.125 144.136719 C 116.445312 144.105469 116.765625 144.105469 117.085938 144.136719 C 117.335938 144.136719 118.28125 144.136719 118.308594 144.566406 C 118.308594 144.621094 118.195312 144.734375 118.054688 144.863281 L 117.074219 144.539062 C 116.742188 144.429688 116.429688 144.289062 116.125 144.121094 Z M 125.195312 136.820312 C 116.453125 137.660156 107.59375 138.011719 98.855469 137.171875 C 98.34375 137.117188 98.34375 136.308594 98.855469 136.363281 C 107.59375 137.203125 116.46875 136.855469 125.195312 136.015625 C 125.710938 135.96875 125.703125 136.773438 125.195312 136.820312 Z M 39.679688 161.472656 C 39.523438 161.589844 39.351562 161.648438 39.15625 161.648438 C 38.960938 161.648438 38.785156 161.589844 38.632812 161.472656 C 38.457031 161.339844 38.320312 161.164062 38.148438 161.035156 C 37.972656 160.910156 37.785156 160.875 37.535156 161.105469 C 37.285156 161.332031 36.808594 161.929688 36.3125 161.734375 C 36.128906 161.65625 36 161.523438 35.921875 161.339844 C 35.921875 161.296875 35.734375 160.78125 35.671875 160.941406 C 35.492188 161.425781 34.710938 161.21875 34.894531 160.726562 C 34.960938 160.511719 35.089844 160.347656 35.28125 160.230469 C 35.472656 160.113281 35.679688 160.078125 35.902344 160.117188 C 36.105469 160.15625 36.269531 160.261719 36.390625 160.429688 C 36.472656 160.582031 36.539062 160.738281 36.59375 160.902344 C 36.964844 160.652344 37.183594 160.230469 37.667969 160.09375 C 38.089844 160.011719 38.441406 160.136719 38.71875 160.464844 C 38.792969 160.527344 39.039062 160.847656 39.140625 160.855469 C 39.242188 160.863281 39.550781 160.5 39.660156 160.425781 C 39.835938 160.300781 40.03125 160.242188 40.246094 160.242188 C 40.457031 160.242188 40.652344 160.300781 40.828125 160.425781 C 40.949219 160.503906 41.179688 160.78125 41.3125 160.761719 C 41.449219 160.742188 41.460938 160.597656 41.496094 160.566406 C 41.667969 160.410156 41.871094 160.320312 42.101562 160.289062 C 42.558594 160.242188 42.921875 160.695312 43.335938 160.640625 C 43.558594 160.640625 43.726562 160.40625 43.957031 160.335938 C 44.097656 160.296875 44.242188 160.28125 44.390625 160.289062 C 44.695312 160.3125 44.964844 160.421875 45.199219 160.613281 C 45.757812 160.40625 46.324219 160.390625 46.894531 160.558594 C 47.402344 160.652344 47.183594 161.433594 46.679688 161.339844 C 46.335938 161.273438 45.738281 161.105469 45.480469 161.414062 C 45.402344 161.492188 45.308594 161.53125 45.195312 161.53125 C 45.085938 161.53125 44.988281 161.492188 44.910156 161.414062 C 44.738281 161.191406 44.515625 161.089844 44.238281 161.105469 C 44.035156 161.105469 43.902344 161.3125 43.71875 161.394531 C 43.234375 161.613281 42.859375 161.324219 42.414062 161.164062 C 41.972656 161.003906 41.742188 161.660156 41.160156 161.574219 C 40.871094 161.527344 40.714844 161.324219 40.488281 161.191406 C 40.0625 160.902344 39.988281 161.257812 39.679688 161.472656 Z M 37.84375 154.253906 C 37.914062 154.039062 38.042969 153.875 38.234375 153.757812 C 38.425781 153.644531 38.632812 153.605469 38.851562 153.640625 C 39.0625 153.679688 39.226562 153.785156 39.351562 153.957031 C 39.429688 154.066406 39.472656 154.28125 39.550781 154.429688 C 39.921875 154.179688 40.144531 153.753906 40.621094 153.621094 C 41.042969 153.539062 41.394531 153.664062 41.675781 153.992188 C 41.742188 154.050781 41.992188 154.375 42.101562 154.378906 C 42.207031 154.386719 42.503906 154.019531 42.617188 153.949219 C 42.792969 153.824219 42.988281 153.761719 43.203125 153.761719 C 43.417969 153.761719 43.613281 153.824219 43.789062 153.949219 C 43.902344 154.023438 44.128906 154.308594 44.265625 154.285156 C 44.398438 154.265625 44.414062 154.125 44.453125 154.089844 C 44.625 153.929688 44.824219 153.839844 45.058594 153.816406 C 45.515625 153.761719 45.878906 154.210938 46.289062 154.164062 C 46.511719 154.164062 46.683594 153.921875 46.90625 153.863281 C 47.050781 153.824219 47.199219 153.808594 47.351562 153.816406 C 47.65625 153.832031 47.925781 153.9375 48.15625 154.140625 C 48.714844 153.925781 49.277344 153.910156 49.84375 154.085938 C 50.355469 154.179688 50.140625 154.953125 49.628906 154.863281 C 49.285156 154.796875 48.695312 154.628906 48.441406 154.9375 C 48.359375 155.019531 48.265625 155.058594 48.152344 155.058594 C 48.042969 155.058594 47.945312 155.019531 47.867188 154.9375 C 47.695312 154.722656 47.472656 154.617188 47.195312 154.621094 C 47 154.664062 46.867188 154.839844 46.683594 154.917969 C 46.195312 155.140625 45.816406 154.851562 45.339844 154.691406 C 44.863281 154.527344 44.667969 155.1875 44.082031 155.101562 C 43.792969 155.054688 43.644531 154.851562 43.410156 154.71875 C 42.980469 154.453125 42.90625 154.804688 42.605469 155.027344 C 42.449219 155.121094 42.285156 155.164062 42.105469 155.152344 C 41.925781 155.144531 41.765625 155.082031 41.621094 154.972656 C 41.441406 154.84375 41.304688 154.667969 41.136719 154.535156 C 40.96875 154.402344 40.769531 154.378906 40.519531 154.609375 C 40.269531 154.839844 39.800781 155.4375 39.304688 155.242188 C 39.117188 155.160156 38.984375 155.027344 38.90625 154.839844 C 38.90625 154.839844 38.71875 154.285156 38.65625 154.449219 C 38.441406 154.972656 37.664062 154.742188 37.84375 154.253906 Z M 57.085938 171.515625 C 56.902344 171.421875 56.6875 171.148438 56.492188 171.101562 C 56.101562 171 55.773438 171.617188 55.566406 171.90625 C 55.355469 172.195312 55.007812 172.203125 54.894531 171.90625 C 54.777344 171.609375 54.394531 170.675781 54.078125 170.695312 C 53.765625 170.71875 53.644531 171.1875 53.527344 171.371094 C 53.132812 171.898438 52.59375 172.316406 51.988281 171.820312 C 51.746094 171.625 51.625 171.226562 51.378906 171.066406 C 51.128906 170.90625 51.269531 170.796875 50.945312 171.214844 C 50.777344 171.457031 50.585938 171.683594 50.367188 171.886719 C 49.574219 172.558594 49.132812 171.988281 48.582031 171.390625 C 47.476562 170.207031 47.296875 172.6875 46.148438 172.277344 C 45.777344 172.140625 45.597656 171.71875 45.402344 171.402344 C 45.324219 171.238281 45.230469 171.085938 45.117188 170.945312 C 44.675781 170.503906 44.527344 170.984375 44.269531 171.34375 C 43.902344 171.839844 43.363281 172.472656 42.65625 172.136719 C 42.34375 171.941406 42.117188 171.667969 41.984375 171.320312 C 41.871094 171.101562 41.714844 170.574219 41.414062 170.570312 C 41.113281 170.5625 40.984375 171.019531 40.945312 171.28125 C 40.871094 171.792969 40.097656 171.570312 40.171875 171.066406 C 40.269531 170.347656 40.78125 169.636719 41.59375 169.78125 C 41.894531 169.84375 42.128906 169.996094 42.300781 170.246094 C 42.503906 170.507812 42.589844 170.824219 42.773438 171.085938 C 42.953125 171.347656 43.042969 171.449219 43.332031 171.214844 C 43.875 170.769531 44.148438 169.519531 45.097656 169.871094 C 45.417969 170.035156 45.664062 170.273438 45.835938 170.589844 C 45.945312 170.742188 46.03125 170.90625 46.125 171.058594 C 46.222656 171.214844 46.222656 171.261719 46.273438 171.296875 C 46.488281 171.449219 46.355469 171.394531 46.582031 171.214844 C 47.15625 170.792969 47.457031 169.917969 48.34375 170.160156 C 48.746094 170.316406 49.046875 170.585938 49.253906 170.964844 C 49.308594 171.03125 49.449219 171.300781 49.527344 171.320312 C 49.609375 171.34375 50 171.039062 50.09375 170.9375 C 50.1875 170.839844 50.382812 170.503906 50.578125 170.320312 C 50.664062 170.222656 50.769531 170.148438 50.890625 170.097656 C 51.011719 170.046875 51.136719 170.023438 51.269531 170.03125 C 51.402344 170.039062 51.523438 170.078125 51.636719 170.140625 C 51.753906 170.207031 51.847656 170.292969 51.921875 170.402344 C 52.078125 170.570312 52.324219 171.128906 52.535156 171.167969 C 52.742188 171.207031 53.089844 170.542969 53.265625 170.332031 C 54.046875 169.394531 54.820312 170.160156 55.285156 170.945312 C 55.546875 170.53125 55.921875 170.292969 56.414062 170.234375 C 56.871094 170.234375 57.144531 170.628906 57.523438 170.816406 C 57.898438 171.007812 57.570312 171.78125 57.085938 171.515625 Z M 83.59375 155.335938 C 83.59375 155.445312 83.554688 155.542969 83.472656 155.621094 C 83.394531 155.699219 83.300781 155.738281 83.191406 155.738281 C 83.078125 155.738281 82.984375 155.699219 82.90625 155.621094 C 82.828125 155.542969 82.785156 155.445312 82.785156 155.335938 C 82.785156 154.769531 82.785156 154.207031 82.785156 153.640625 C 82.789062 153.53125 82.832031 153.4375 82.90625 153.359375 C 82.984375 153.28125 83.078125 153.242188 83.191406 153.238281 C 83.300781 153.238281 83.394531 153.28125 83.472656 153.359375 C 83.550781 153.4375 83.589844 153.53125 83.59375 153.640625 C 83.585938 154.207031 83.59375 154.769531 83.613281 155.335938 Z M 89.503906 171.78125 C 89.5 171.890625 89.457031 171.984375 89.378906 172.0625 C 89.300781 172.136719 89.207031 172.179688 89.097656 172.183594 C 88.988281 172.179688 88.894531 172.140625 88.816406 172.0625 C 88.738281 171.984375 88.699219 171.890625 88.695312 171.78125 C 88.640625 170.769531 88.628906 169.761719 88.660156 168.753906 C 88.660156 168.644531 88.703125 168.546875 88.78125 168.46875 C 88.859375 168.390625 88.953125 168.351562 89.066406 168.351562 C 89.175781 168.355469 89.269531 168.394531 89.347656 168.472656 C 89.425781 168.550781 89.464844 168.644531 89.46875 168.753906 C 89.433594 169.761719 89.449219 170.765625 89.503906 171.78125 Z M 89.503906 171.78125 " fill-opacity="1" fill-rule="nonzero"></path></svg>