<svg xmlns="http://www.w3.org/2000/svg" id="Layer_1" data-name="Layer 1" viewBox="0 0 1080 1080"><defs><style>.cls-1,.cls-2,.cls-3{fill:none;stroke-miterlimit:10;stroke-width:15px;}.cls-1{stroke:#4670cf;}.cls-2{stroke:#e27b7c;}.cls-3{stroke:#b0cdff;}</style></defs><path class="cls-1" d="M656.85,509q25.56,185.35,50.48,365.9c-33.66-.54-66-1.56-98.22-1.29-10,.08-13-3.91-15.26-12.46-18.81-69.65-38-139.2-57.13-208.76-1.37-5-3.08-10-7.61-14.88-1.93,6.2-4,12.35-5.77,18.6-18.84,68.25-37.86,136.44-56.13,204.83-2.64,9.85-6.72,12.77-16.54,12.59-31.49-.58-63-.22-96.68-.22,16.47-119.56,33.24-241.25,50.55-366.87-10.8,16.29-22.6,25.58-38.88,22.95-8.39-1.36-17.16-5.89-23.86-11.33-22.78-18.49-44.95-37.77-66.93-57.22-49.16-43.5-44.44-113.23,11-148.37,50.27-31.88,101.66-62,152.47-93,8.57-5.23,15.11-4.91,24.14,1.2,41.91,28.34,95.91,27.62,137.45-1.1,6.77-4.69,12.16-6.31,19.39-1.87,55,33.73,111.32,65.39,164.65,101.52,45.32,30.71,48.51,97.38,8.88,135.28-24.77,23.69-51.39,45.52-78,67.24C696.91,536.42,678.7,532.21,656.85,509ZM330.63,401.32l77.48,79.82c6.37-46.58,13-95,20.19-147.47Zm399.69-.18-94.08-64.95-2.92,2.43,19.74,142.91Z"></path><path class="cls-2" d="M156.43,1009.46V895H907.62v114.43Z"></path><path class="cls-1" d="M615.53,117.68a85.37,85.37,0,1,1-170.74-.78c.35-46.87,38.8-84.76,85.84-84.6A85.18,85.18,0,0,1,615.53,117.68Z"></path><path class="cls-2" d="M849.46,1070.82v-26.9h92V959.66h110c.45.8.91,1.6,1.37,2.4l-66.2,53.31,68.81,55.45Z"></path><path class="cls-2" d="M122.56,1043.86h92.29V1071H9l69-55.62L9,960H122.56Z"></path><path class="cls-3" d="M117.94,389.13c-9,0-18,.43-27-.11-12.71-.76-20.25-8.15-20.35-19s7.41-18.75,20-19.14c18.42-.56,36.88-.48,55.3,0,11.31.29,18.69,6.25,19.53,18.14.78,11-6.75,19-19.2,19.89-9.39.67-18.87.13-28.32.13Z"></path><path class="cls-3" d="M957.08,350.73c9,0,18-.36,27,.09,12.55.63,20.55,8,20.87,18.53s-7.67,19.16-19.81,19.57c-18.84.63-37.75.66-56.58-.1-11.31-.45-18.55-7.24-18.46-19.07s7.3-18.09,18.73-18.8c9.4-.59,18.86-.12,28.29-.12Z"></path><path class="cls-3" d="M815.83,112.37c-15.94-.07-26.84-16.78-17.92-27.6a363,363,0,0,1,47.55-47.34c4.07-3.39,17.42-1,22.24,3.45,4.18,3.81,5.85,17.18,2.49,21.21-14,16.82-30.22,31.85-46,47.16C821.89,111.49,817.65,111.74,815.83,112.37Z"></path><path class="cls-3" d="M200.45,50.61c3.51-4.37,6.61-11.76,11.78-13.74,5.73-2.2,15.57-2,19.77,1.6A512,512,0,0,1,276,82c6.76,7.43,5.81,16.91-1.31,24.42-6.71,7.07-16.22,9-23.15,2.82-16.37-14.6-31.48-30.64-46.73-46.46C202.57,60.48,202.36,56.21,200.45,50.61Z"></path><path class="cls-3" d="M812.73,625c6.71,3.71,12,5.45,15.7,8.92,13.06,12.33,25.76,25.07,38.22,38,8.55,8.89,8.92,20,1.72,27.72-7.56,8.08-19.39,8-28.74-.91-13-12.42-26.36-24.61-37.76-38.39-4.25-5.13-5.82-15.09-4.13-21.7C799.11,633.34,807.22,629.73,812.73,625Z"></path><path class="cls-3" d="M218.62,707.24c-4.76-3.85-12.14-7-14-12.14-2.12-5.77-1.8-15.53,1.86-19.78A501.29,501.29,0,0,1,249.22,632c8-7.26,17.82-6.53,25.54,1.47,7.25,7.51,7.87,17.08,1.08,24.55-13.65,15-28.32,29.15-43,43.17C229.84,704,224.82,704.69,218.62,707.24Z"></path></svg>