<svg xmlns="http://www.w3.org/2000/svg" id="Layer_1" data-name="Layer 1" viewBox="0 0 1080 1080"><defs><style>.cls-1,.cls-2,.cls-3{fill:none;stroke-miterlimit:10;stroke-width:15px;}.cls-1{stroke:#4670cf;}.cls-2{stroke:#e27b7c;}.cls-3{stroke:#b0cdff;}</style></defs><path class="cls-1" d="M595.53,127.22C655.7,88,718.66,78,784.85,103.21c73.82,28.14,116.72,82.84,130.31,160.35,1.52,8.63,4,13.16,12.59,16.66,96,39.21,147.07,133.21,127.06,232.57C1035.7,607.63,951.17,673.88,849.14,674H829.62c14.2-178.27-130.67-324.61-303-318.48C369.5,361.1,233.56,495,245.06,672.9c-52.54,5.19-101.22-5.45-143.9-36.75-64.74-47.5-94.2-112.57-84-192,10-78,53.87-132.72,127.05-162.76,8.7-3.57,12.9-6.71,12.7-17.45-2-107.26,63.84-199.8,165.25-233.36,97.92-32.41,205,3.14,267.56,88.88C591.3,121.69,593,123.85,595.53,127.22ZM563.42,267.46h.18c0-6.06.36-12.15-.07-18.19-1.11-15.74-11.83-26.37-26.26-26.46S511.6,233.28,510.8,249a295.74,295.74,0,0,0,.18,38c1.11,14.24,13.38,25,26.78,24,14.36-1.11,23.43-9.25,25.51-23.69C564.2,280.8,563.42,274.08,563.42,267.46ZM381.91,384.28c6.84-5.93,17.23-10.84,20-18.52s1-20.3-3.88-27.11c-7.82-10.93-19.32-19.52-30.19-27.9-11.5-8.86-27-6.76-35.54,4.12-9,11.48-9.17,23.85.85,34.52a268.29,268.29,0,0,0,29.5,26.43C367.17,379.36,373.42,380.66,381.91,384.28Zm307.49-2.61c21.87.4,59.58-32.83,58.27-48.61-.68-8.18-6-19.21-12.57-22.78-7.21-3.91-20.11-3.92-27.25.14a104.8,104.8,0,0,0-31.78,28.35c-4.91,6.69-6.6,19.36-3.73,27.11S685.58,378.4,689.4,381.67Z"></path><path class="cls-2" d="M563.67,956.85v-68c0-48.09.27-96.18-.2-144.26-.11-10.67,2.29-18.73,10.52-26.07,12.35-11,23.61-23.27,35.34-35,26.65-26.66,31.1-41.24,16.82-55s-27.3-9.78-53.65,17c-11.19,11.38-21.73,23.41-35,37.76-17.33-18.12-32.26-34.2-47.71-49.75-15.09-15.18-30-16.6-42-4.79-11.63,11.48-10,27.29,4.41,42.08,1.16,1.19,2.35,2.34,3.51,3.53,18.09,18.55,43.18,34.23,52.29,56.46s2.43,51.12,2.48,77.08q.12,65.49,0,131v17.45c-29.05,0-56.57,1.11-83.95-.42-15.58-.87-22.13-13-22.21-28.08-.12-22.1-.6-44.23.19-66.31.4-11-3.37-17.66-12.06-24.69-76.9-62.16-109.23-142.73-88.2-239.5,21.3-98,84.41-159.63,182-182.87C594,388.84,705.54,444.78,753.2,545.8,800.59,646.28,772,767.66,684.16,835c-11,8.42-15.34,16.62-14.57,30.11,1.13,19.83.43,39.78.25,59.68-.2,22.22-9.14,31.68-30.76,32C614.78,957.1,590.47,956.85,563.67,956.85Z"></path><path class="cls-3" d="M621,1011c-12.63,31.44-48,52.54-85.64,52-36.1-.55-70.6-22.1-81.95-52Z"></path></svg>