<svg xmlns="http://www.w3.org/2000/svg" id="Layer_1" data-name="Layer 1" viewBox="0 0 1080 1080"><defs><style>.cls-1,.cls-2,.cls-3{fill:none;stroke-miterlimit:10;stroke-width:15px;}.cls-1{stroke:#e27b7c;}.cls-2{stroke:#4670cf;}.cls-3{stroke:#b0cdff;}.cls-4{fill:#4670cf;}</style></defs><path class="cls-1" d="M878.81,94.69c.93-6.93,2-13.31,2.56-19.76.34-4,2.2-4.92,4.72-5,5.83-.24,11.66-.39,17.49-.4q57.7-.11,115.42-.11c5.72,0,6.41.56,7.45,7.48.87,5.77,1.42,11.62,2,16.7,4.46-2.29,9-5.75,13.9-7,14.85-3.62,28.8,9.17,30.3,28,.93,11.67,1,23.54-1.55,35.11-6.49,30-27.83,51.16-52.86,50.77-8.87-.14-15.06,2.19-20.6,11.54-5.69,9.63-13.52,17.33-17.49,28.65-2,5.77-3.63,11.78-5.51,18h-42.3c-2.94-18.14-11-32.33-21.48-44.72a38.53,38.53,0,0,1-5.52-8.13c-2.07-4.35-4.83-5.35-8.64-5.11-11.81.75-23.32-1-33.77-8.63-18.16-13.27-27.61-33.13-28.31-59.39a134.93,134.93,0,0,1,.24-18.11c2.75-25,25.33-36.73,41.74-21.86ZM1012.24,190a24.34,24.34,0,0,0,3.89.52c14.1,0,26.13-6.19,35.82-19.1,11.64-15.5,13.65-34.5,12.32-54.54-.82-12.32-8.55-20.62-18.31-20.26-9.12.33-16.64,9.76-16.92,21.21-.3,12,6.59,21.58,16.39,22.74,3,.35,5.49,1.35,5.41,5.88-.07,3.59-2.45,5.21-6.41,4.73-7.24-.88-13.16-5-17.49-11Q1019.65,165,1012.24,190Zm-116.84-.22L880.72,140.2c-.36.42-1.24,1.47-2.13,2.49a23.8,23.8,0,0,1-16.45,8.64c-2.81.23-5-.86-5.3-4.79s1.77-5.46,4.58-5.84c.62-.08,1.24-.07,1.85-.16,8.86-1.33,15.57-11.29,15.28-22.68-.27-11.08-7.46-20.48-16.18-21.15-9.36-.73-17.93,6.84-18.7,17.92a145,145,0,0,0,.46,28.19C847.47,168.78,867,193.23,895.4,189.82Z"></path><path class="cls-1" d="M907.16,338.78V315h93.2v23.75c3,0,5.55.07,8.11,0,3-.1,5.35,1.31,5.37,5.33s-2.39,5.31-5.38,5.31q-27.71,0-55.43,0-26.22,0-52.45,0c-1.36,0-3.07.37-4-.49a9,9,0,0,1-2.81-5.25c-.16-2.9,1.66-4.72,4.11-4.81C900.85,338.7,903.8,338.78,907.16,338.78Z"></path><path class="cls-1" d="M1000.16,304.14h-92.9c.08-7.43-1.11-14.87,1.47-21.89,2.88-7.84,7.91-12.41,14.9-12.47q30.17-.24,60.33,0c8.43.07,15.23,7.81,16.12,18.26C1000.52,293.22,1000.16,298.5,1000.16,304.14Z"></path><path class="cls-2" d="M836.29,386.46h235.14v689.59H836.29Z"></path><path class="cls-2" d="M796.82,1076.16H561.64V554.61H796.82Z"></path><path class="cls-2" d="M522.57,721.75v354H287v-354Z"></path><path class="cls-2" d="M248,889.39V1076H12.4V889.39Z"></path><path class="cls-3" d="M697.22,299.89c-42.17-11-79.81-21.14-117.59-30.64-14.61-3.67-25.44-10.31-21.79-27.07,3.8-17.44,17.55-18,31.48-14.41,55.34,14.13,110.56,28.67,165.85,43,17.45,4.52,23.94,15,19.26,32.74q-21.57,81.83-42.64,163.8c-3.89,15.15-10.84,27.58-28.46,22.52s-16.53-19.2-12.45-34.25c10.35-38.24,19.85-76.72,30.57-118.52-8.25,3.89-14.17,6.3-19.74,9.35q-311,169.82-621.86,339.75c-2.45,1.33-4.89,2.67-7.32,4-13.31,7.52-27.22,11.68-35.86-5.09-8.38-16.29,2.17-25.16,15.95-32.68q309.22-168.64,618.2-337.76C678.08,310.69,685.27,306.58,697.22,299.89Z"></path><path class="cls-4" d="M947,169l23.66-30.22c.8-1,1.56-2.68,2.45-2.82,1.79-.29,4.31-.56,5.3.72s.61,4.46.48,6.78c0,.87-1.07,1.68-1.68,2.47q-12.84,16.43-25.69,32.81c-3.57,4.55-5.14,4.54-8.7,0-4.08-5.16-8.12-10.37-12.2-15.53-2.17-2.73-3-5.77-.6-8.72,2.23-2.75,4.55-1.79,6.56.84C940,159.79,943.42,164.23,947,169Z"></path></svg>