<svg xmlns="http://www.w3.org/2000/svg" id="Layer_1" data-name="Layer 1" viewBox="0 0 1080 1080"><defs><style>.cls-1{font-size:243.27px;fill:#231f20;font-family:Poppins-SemiBold, Poppins;font-weight:600;}</style></defs><path d="M935.89,166.23q0-53.5,0-107c0-10-3.94-18.06-13.17-22.74-8.48-4.31-17.78-4-23.74,2.83-4.92,5.63-8.75,14.09-9.11,21.48-1.14,23.35-.42,46.79-.42,72.21-4.16-2.94-6.22-4.34-8.22-5.83C719.35,7,543.42-17.91,360.77,66.45,172.52,153.4,75.71,308.24,68.16,515.36a471.61,471.61,0,0,0,.88,51A36.86,36.86,0,0,1,78.43,568a37.18,37.18,0,0,1,19.14-.11l1.38-1-.85.66A36.65,36.65,0,0,1,114.6,562q-4.89-64.54,9.23-134C170.56,199.52,379.43,47,612,67.4c84.74,7.42,161.05,37.24,229.61,87.34,2.55,1.87,4.91,4,9.69,8h-12c-18.19,0-36.4-.4-54.57.19-14.74.48-24.16,10.3-24,23.42s10.28,22.56,24.67,22.61q62.6.23,125.21,0c15.33-.05,24.52-9.19,25.15-24.5C936.08,178.37,935.89,172.3,935.89,166.23Z"></path><path d="M1052,668.69c-8,19.2-15.16,38.86-24.5,57.4-4.44,8.81-17.79,10.1-26.9,5.58-9.6-4.78-15.43-15.95-12.07-25.89,5.45-16.15,11.44-32.15,18.08-47.84,4.35-10.26,14.88-14.47,25.84-12C1042.36,648.21,1049.43,657.2,1052,668.69Z"></path><path d="M989.76,786.74c.16,16.21-31.78,59-43.88,62.58-9.62,2.86-17.73,0-23.91-7.35-6.58-7.87-7.71-17.42-2.08-25.79,9.51-14.13,19.88-27.75,30.71-40.91,6.46-7.84,15.64-9.55,25.22-5.53C984.88,773.53,989.57,780.56,989.76,786.74Z"></path><path d="M1010.89,401.44c-.22-14.49,6.71-23.33,17.95-25.68s22.49,2.76,25.62,13.79A482.7,482.7,0,0,1,1066,441.38c1.82,10.9-7.35,21.33-18.64,23.86-9.83,2.2-22.07-3.4-24.95-13.61C1017.47,434.28,1014.24,416.46,1010.89,401.44Z"></path><path d="M716.68,1003.73c-12.06-2.62-20.38-9.47-22.88-20.53-2.29-10.12,2.05-20.58,11.94-24.73,15.67-6.58,31.67-12.45,47.77-17.89,9.67-3.28,20.24,1.88,25.26,11,5.29,9.55,4.45,23-4.85,27.74C755.52,988.75,735.84,995.73,716.68,1003.73Z"></path><path d="M840.42,941.66c-11.64.17-19.24-4.72-22.83-14.26-3.52-9.35-2.15-18.76,6-25.29,13-10.46,26.41-20.59,40.18-30.08,9.06-6.24,20.74-4,28.2,4,7.08,7.58,9.41,21.62,1.86,28.29-14.84,13.12-31.31,24.39-47.3,36.17C844.74,941.8,841.72,941.44,840.42,941.66Z"></path><path d="M1024.13,571.51c.75-12.8,1.3-25.62,2.28-38.4,1.06-13.68,10.79-22.56,23.82-22.25,12.78.3,22.69,10,22.26,23.74-.52,16.36-1.94,32.74-4,49-1.42,11.34-12.9,19.33-24.06,18.33A22.62,22.62,0,0,1,1023.59,580c-.14-2.84,0-5.69,0-8.54Z"></path><path d="M1000.31,337.72c-6.17-4.66-14.08-8.15-18.15-14.21-8.5-12.64-15.23-26.5-22.22-40.11-5.87-11.46-2-24.58,8.52-30.72,10.64-6.23,24-3.43,30.82,7.78a453.1,453.1,0,0,1,22.88,42.18C1029.56,318.46,1018.83,335.13,1000.31,337.72Z"></path><path d="M620.58,975.75c18.86-1.09,29.17,6.94,29,22.43-.12,11.4-7.55,20.75-19,22.1-15.5,1.84-31.09,3.19-46.69,3.85-14.21.6-24.37-9.1-24.72-22.23-.36-13.39,8.83-23,23.13-23.95C595.07,977.1,607.83,976.48,620.58,975.75Z"></path><path d="M155,773.14c14.21,26.6,153.09,143.21,181.76,152.53,2.89-5.78,6-11.72,8.86-17.81S351.3,895.4,353.7,889c7.66-20.41,22.53-25.57,40.16-22.84A224.76,224.76,0,0,1,445,880.62c19.8,8.21,38.24,19.62,57.57,29,11.54,5.61,15.78,15,17.27,26.82,6.36,50.68-17.31,91.1-66.66,113.62-35.43,16.17-72,16-109,7.32-44.39-10.34-84.26-30.9-122.43-55.08A595.58,595.58,0,0,1,72,867.33c-25.93-32.83-47.65-68.07-58.54-109C2,715,6.42,673.67,32.52,636.47c22.25-31.73,54.07-44.39,92.34-41,3.58.32,7.93,2.13,10.27,4.73,26.26,29.13,50.83,59.53,65.56,96.44,2.84,7.12,4.14,15.07,4.88,22.75,1.12,11.53-3.31,21.07-13.13,27.7-7.9,5.33-15.94,10.46-23.8,15.86C164.05,766.12,159.69,769.62,155,773.14ZM402.72,1035.6c20.45-1.86,36.38-7.18,52.9-17.88,27.09-17.55,41.21-41.67,37.91-74.7-.54-5.35-2.76-9-7.62-11.53-11.29-5.85-22.18-12.5-33.64-18-19.18-9.12-38.45-18-60-20.71-7.68-1-11.45,1.5-14.48,8.54-5.77,13.43-11.58,27-19.32,39.38-7.89,12.57-20.58,15.86-34.05,9.66-11-5.08-22-11-31.41-18.62q-63.06-51-125-103.38c-12.19-10.37-23.12-22.61-32.91-35.31-12.34-16-9.81-31,5.92-43.59,8-6.41,16.69-11.94,25.26-17.57,14.95-9.81,15.48-10.1,8.59-26.81C162.25,674.4,141.44,649,120.23,624a7.39,7.39,0,0,0-5-2.27c-17.9.07-34.58,4.47-48,16.75-24.65,22.53-33.38,51.67-32.24,84,.9,25.64,9.95,49.18,21.66,71.68,20.29,39,48,72.37,78.76,103.42,51.16,51.66,109.32,93.25,176.74,121.1C341,1030.68,371,1038.11,402.72,1035.6Z"></path><text class="cls-1" transform="translate(264.02 602)">24/7</text></svg>