<svg xmlns="http://www.w3.org/2000/svg" id="Layer_1" data-name="Layer 1" viewBox="0 0 1080 1080"><defs><style>.cls-1{fill:none;stroke:#000;stroke-miterlimit:10;stroke-width:16.73px;}</style></defs><path d="M517.83,617.85c-23.5,16-44.68,13.55-61.27-6-15.81-18.62-15.53-45.68.86-63a28.77,28.77,0,0,1,9-6.91c30.27-13.15,61.48-23.35,94.35-27.42,14.23-1.76,28.86-1,42.87-3.74,11.07-2.13,21.93-6.93,31.94-12.31,4-2.14,8-9.46,7.27-13.62s-6.86-9.28-11.45-10.27c-6.16-1.32-13.23.27-19.65,1.73-12.13,2.77-24.09,3.93-35.57-1.76-3.09-1.53-5.19-5-7.75-7.63,2.31-1.93,4.48-4,6.94-5.74,18.81-13,39.05-20.26,62.3-15.41,19,4,32.77,18.67,34.12,36.56,1.37,18.2-9.94,36.82-28.79,41.55-20.6,5.17-42,7.07-63.11,10.51-25.82,4.22-51.65,8.45-77.43,13a62.51,62.51,0,0,0-13.6,4.55c-20,8.55-25.59,31.05-9.85,46.09,7.93,7.6,19.4,11.54,29.4,16.9C510.9,616.22,513.85,616.64,517.83,617.85Z"></path><path d="M570.87,544.41c10.8-.79,21.59-1.95,32.41-2.29,17.44-.54,30.47,11,33,28.43,3.34,23.42-8.74,45.91-30.83,56.79-23.83,11.73-49.68,16-75.45,20.94a102.59,102.59,0,0,0-28.71,9.91c-11.92,6.36-15.13,17.43-7.48,28.34,5.77,8.21,15,14,22.68,20.83,1.5,1.33,3.19,2.46,4.79,3.67-1.43,1.47-2.59,3.45-4.32,4.32-16.08,8.11-30.1,4.33-41.76-11-16.48-21.69-10.81-51.37,13.88-62.57,19.34-8.79,40.07-14.75,60.53-20.92,16.41-5,34.08-6,48.2-17.38,10.3-8.29,15.78-18.73,13-31.93s-12.31-20.46-25.13-23.45c-4.9-1.14-9.88-1.9-14.83-2.83C570.82,545,570.84,544.71,570.87,544.41Z"></path><path d="M216.75,320.39c9.1.62,18.2,1.69,27.32,1.87,39.51.84,77.38-8.11,114.82-19.65,14-4.3,28.22-8.33,42.58-11.32,27.37-5.71,43.44,2.14,55.41,27.09,8.36,17.43,19.29,32.06,34,43,2,1.49,11.51,4.24,20.18,11.54,3.19,2.69,5.9,5.57,5.29,8.35-.56,2.54-3.63,3.89-4.23,4.14-3.35,1.38-6.73.28-8.1-.2-22.57-7.86-31.7-15.46-31.7-15.46-18-15-17.84-18.06-32.29-32.77-19.31-19.65-40.42-29.16-69-18.72-35.86,13.1-73.24,21.21-111.78,19.77-11.23-.42-22.42-4.2-33.4-7.29-3.83-1.07-7-4.68-10.4-7.13Z"></path><path d="M864.51,324.49c-4.23,2.86-8.11,7.06-12.78,8.32-9.77,2.65-19.93,5-30,5.24a296.34,296.34,0,0,1-100.9-15.5c-44.78-14.87-56.1-11.9-86.61,23.89-12.9,15.13-25.64,30.53-45,37.75a41.83,41.83,0,0,1-15.73,2.73c-2.5-.1-6.27-3.75-6.75-6.32-.45-2.32,2.18-6.84,4.52-7.82,27-11.32,43.93-32.09,55.9-57.88,8.61-18.56,23.9-27.55,44.39-23.67s40.81,10.25,61.22,15.43c35.67,9,71.56,16.73,108.67,15.76,7.18-.19,14.35-1,21.53-1.57Z"></path><path d="M563.53,652.49c8.65-2.86,17.16-7.13,26-8,4.93-.51,11.71,3.35,15.45,7.32,18.43,19.55,12.59,50.7-12.32,68.06-15.76,11-33.78,16.41-52.34,20.31-5.93,1.25-12,2.15-17.81,3.67-9.51,2.49-17.39,7.26-18.86,18-1.51,11,3.91,19.08,12.68,25.12,2.58,1.77,5.43,3.17,8.18,4.74-6.31,10.08-12.08,11.86-21,5.44-13.19-9.57-21.14-22.17-19.19-39.31,1.81-15.89,11.1-25.1,26.06-29.67,14-4.28,28.08-8.74,41.72-14a143.66,143.66,0,0,0,28-14c8-5.34,12.74-13.94,10.65-24.1-2.16-10.45-9.83-16-19.79-18.72-2.44-.66-4.83-1.45-7.25-2.19C563.72,654.22,563.62,653.35,563.53,652.49Z"></path><path d="M541.45,346.51c-22.86-.37-40.17-18-39.63-40.39A39.69,39.69,0,0,1,542,267c21.3.32,38.69,18.6,38,39.94C579.28,329.41,562.27,346.85,541.45,346.51Z"></path><path d="M513,515.81c-3.68.89-7.41,1.62-11,2.68-10.13,3-20.14,6.31-30.33,9-20.6,5.45-38.5-.91-52.25-16-19.87-21.74-8.57-56.68,20.91-63.51,12.27-2.85,26.21-2.23,38.64.45,12.11,2.61,23.22,9.86,35.1,15.23-3.41,11.35-11.54,14.55-20.19,14.86-8.49.3-17.06-1.78-25.58-2.71-5.38-.59-11.19-2.44-16-1.05s-11,5.33-12.61,9.62c-1.21,3.28,2.66,10.57,6.32,13.1,17.35,12.14,37,17,58.17,15.06,2.81-.26,5.66,0,8.5,0C512.74,513.65,512.87,514.76,513,515.81Z"></path><path d="M525.77,372.53c-.71-2.49-1.6-7.3.81-11.38,5.12-8.64,21.62-8.21,27.08-1.6a11.51,11.51,0,0,1,2.32,7.59c-1.38,43.79-3,87.57-4.5,131.36-.28,8-5.5,10.13-12.22,10.36-2.85.1-4.77-.52-6.06-1.67-3-2.68-2.63-7.79-2.55-9.07C531.16,489.92,529.05,440.89,525.77,372.53Z"></path><path d="M564.81,743.16c8.83-1.77,17.38-6.34,21.93-3.78,9,5,11.86,15.69,10.41,26.15-2.62,19.1-13.93,32-31,39.78-10.75,4.91-21.87,9-32.78,13.56A48.72,48.72,0,0,0,525.8,823c-14.46,9.45-15.79,20.81-4.43,33.62,2.15,2.43,2.85,6.15,4.22,9.28-3.58-1-7.94-1.08-10.61-3.24-20.92-16.8-19.28-39.37,3.88-53,7.67-4.53,16-7.93,24-11.86,7.15-3.53,14.7-6.48,21.34-10.81,16.94-11.08,18.23-22.82,4.92-37.85C568.31,748.15,567.67,747.11,564.81,743.16Z"></path><path d="M243.81,344.44c6.8.46,10.8.68,14.79,1,36.86,2.83,72.51-3,107.16-15.35,10.61-3.8,11.07,4.76,16.05,12.63-21.06,5.92-40.56,13-60.7,16.54-16.72,2.94-34.18,2.56-51.26,2C260.07,360.89,251.07,356.14,243.81,344.44Z"></path><path d="M836,349.86c-4.56,3.18-8.82,8.4-13.73,9.13-14.65,2.17-30,5.38-44.3,3-22.81-3.74-44.94-11.53-67.31-17.85-4.24-1.2-9-3-6.59-9.3,2.15-5.56,5.87-6.31,11.47-4.62,30.29,9.14,60.8,17.25,92.88,16.36,8.54-.23,17.09,0,25.63,0Z"></path><path d="M397.83,362.74c-30.27,12.58-59.74,25.74-93,23.72-8.42-.52-17.64-1.75-22.47-13,11.66-1.25,22.19-1.35,32.22-3.63,20.78-4.73,41.6-9.71,61.78-16.41C386.74,350,392.6,351.83,397.83,362.74Z"></path><path d="M316.83,397.93c3.3-1.53,5.12-3,7.07-3.17,26.93-2.84,51.94-12.25,77-21.72a21.54,21.54,0,0,1,14.35.19c5.52,2.18,6.43,7.09.54,10.74-20.48,12.66-41.85,23.35-66.29,25.44C337.76,410.41,326.49,408.3,316.83,397.93Z"></path><path d="M797.34,375c-4,9.17-12.21,11.09-19.87,10.87-14.6-.42-29.59-.82-43.6-4.37-17.11-4.37-33.38-12-50.5-18.38,6.35-11.3,13-12.87,22.7-9a255.05,255.05,0,0,0,81.06,18.15c2.55.15,5.09.53,7.61.92C795.24,373.29,795.75,373.87,797.34,375Z"></path><path d="M658.89,381.46c6.25-8.12,10.42-12.67,18.1-9.51,26.06,10.74,52.68,19.52,80.74,23.31,1.39.19,2.63,1.4,7.19,3.95-7.31,3.84-12.41,8.66-17.67,8.83-11.9.4-24.62.72-35.66-3C694,399.17,677.45,390,658.89,381.46Z"></path><path d="M363,420.13c3.33-2.68,4.18-3.66,5.25-4.19,21.43-10.53,42.82-21.13,64.38-31.38a15.94,15.94,0,0,1,9.91-1.12c4.64,1.14,6.59,4.33,3.88,9.49C434.9,414.72,401,432,377.49,427.2,372.86,426.26,368.7,423,363,420.13Z"></path><path d="M387.23,325.44c19.78-7.27,53.92,15.07,72.69,47.57C432.31,378.64,393.22,353.06,387.23,325.44Z"></path><path d="M694.82,324.17c-5.42,25.47-41,53.14-73.57,48.95,20.23-18.33,32.21-44.39,61.81-48.88C686.66,323.7,690.34,324.17,694.82,324.17Z"></path><path d="M696.11,428.19c-26.44-1.31-44.9-14.54-59.59-33.88-1.52-2-1-8.65,0-9,3.8-1.25,8.78-2.23,12.1-.69,6.87,3.19,12.6,8.74,19.42,12.07,13.46,6.53,27.37,12.1,41,18.26,2.38,1.08,4.32,3.12,6.46,4.67-2.14,2-4,4.95-6.5,5.87C704.56,427.14,699.68,427.51,696.11,428.19Z"></path><path d="M530.42,616.2c0-21.22-.39-40.86.62-60.44.1-2,8.31-4.24,13-5.18,4.42-.9,8.07.73,8,6.59-.27,16.23,0,32.52-.75,48.74-.11,2.56-3.64,5.8-6.38,7.2C541.6,614.78,537.51,614.8,530.42,616.2Z"></path><path d="M421.12,433.35c5.26-5.68,9.43-9.83,13.2-14.31,8-9.49,16.18-18.84,23.46-28.85,3.75-5.19,7.3-8,13.36-4.85s5.4,8.2,2.15,12.85c-7.09,10.15-13.9,20.59-22,29.88C443.81,436.56,433.51,436,421.12,433.35Z"></path><path d="M658.31,432.64c-10.77,3.75-21.22,2.29-28.5-5.61-8.73-9.51-15.76-20.75-22.74-31.73-1.38-2.18-.05-9,1.48-9.52,3.53-1.25,9.79-1.56,11.69.62C633.22,401.18,645.37,416.7,658.31,432.64Z"></path><path d="M544.76,916.7l-3.92,6.3c-1.19-1.94-3.34-3.83-3.42-5.82-1.15-27.46-2.23-54.92-2.6-82.42,0-2.69,4.72-5.43,7.26-8.15l2.86,4.28Z"></path><path d="M533.3,657.86a2.57,2.57,0,0,1,.75-.35c16-2.6,16-2.6,16,13.26,0,7.35-.12,14.7-.16,22.05-.08,13.81-.08,13.81-16.57,15.82Z"></path><path d="M462.9,433c7.81-13.73,14.58-25.88,21.68-37.83.86-1.44,3.93-2.87,5.29-2.39,2.45.88,5.37,2.76,6.37,5,4.08,9.2-10.27,34.5-20.26,35.81C472.05,434.09,468,433.26,462.9,433Z"></path><path d="M618.56,431.13c-18.64,4.62-23.14,2.39-29.13-14.08-1.74-4.76-3.6-9.77-3.78-14.72-.11-3.08,2.83-6.24,4.41-9.41,2.49,1.74,5.77,2.95,7.36,5.31,3.74,5.51,6.4,11.73,10,17.37C610.71,420.84,614.64,425.73,618.56,431.13Z"></path><path d="M580,832.61c-1.75,16-6.5,26.4-17,33.41-1.63,1.09-4.53.26-6.86.31.62-2.18.62-4.86,1.94-6.45,13-15.61,13.11-18.16,1.87-35.52-1-1.5-.41-6,.27-6.24,3.52-1,9.36-2.75,10.64-1.17C575.18,822.35,578,829,580,832.61Z"></path><path d="M534.7,752.66c6-2,9.47-2.7,11.36-1.31s2.16,4.11,2.13,10.63c0,4.85-.2,11.33-.81,19l-10.89,4.21-1.59-4.14Q534.8,766.88,534.7,752.66Z"></path><path d="M550.46,4.59C569,9.88,585.13,18.46,596.2,35.12c1.38,2.09,6,2.68,9.16,2.82,16.33.72,32.77.13,49,1.8,19.06,2,34.4,12,47.91,25.46a22.36,22.36,0,0,0,14.08,6c50.54.43,101.08.21,151.61.28,55,.07,90.3,35.19,90.31,90q.06,412,0,823.93c0,54.38-35.25,89.85-89.41,89.86q-328.84.12-657.68,0c-54.19,0-89.42-35.46-89.43-89.85q-.06-412,0-823.93c0-54.84,35.3-90,90.3-90,50.54-.07,101.08.15,151.61-.28a22,22,0,0,0,14.08-6C395,47.67,415.55,38.42,440.14,38.09c3.48-.05,7-.21,10.45,0,17.75,1,33.7,1.12,46.54-16.36,6.51-8.86,21.34-11.61,32.41-17.13ZM724,105c0,26.62,0,52,0,77.39,0,17.53-5.52,23-23.23,23q-161,0-322,0c-17.43,0-22.8-5.56-22.83-23.38,0-25.32,0-50.65,0-77h-9.5q-66.91,0-133.82,0c-37.61,0-57.45,19.76-57.45,57.24q0,411.39,0,822.79c0,36.89,20,56.9,56.73,56.9q328.28,0,656.55,0c36.15,0,56.33-20.14,56.33-56.25q0-412.44,0-824.88c0-35.43-20.35-55.73-55.74-55.79q-68-.09-135.91,0Zm-33.47,66.43c0-16.35.2-32,0-47.58-.48-31.36-21.31-51.91-52.91-52.28-15-.18-30-.37-44.94.08-10.61.32-18.07-3.27-22.43-13.29-5.73-13.16-16.5-20-30.43-19.92s-24.56,7.11-30.27,20.23c-4.17,9.61-11.33,13.19-21.55,13-16.36-.37-32.76-.48-49.12,0-25.4.83-46.33,18.61-48.57,43.17-1.68,18.56-.33,37.38-.33,56.57Z"></path><path d="M540.51,104.82c-8.77.31-16.89-7.47-17-16.32S531.18,71.67,540,71.68c8.4,0,16.09,7.35,16.52,15.79C557,96.23,549.35,104.5,540.51,104.82Z"></path><path class="cls-1" d="M735.07,117.23H868.73A39.18,39.18,0,0,1,908,156.32V986.23a39.18,39.18,0,0,1-39.26,39.1H211.64a39.19,39.19,0,0,1-39.27-39.1V156.32a39.18,39.18,0,0,1,39.27-39.09H345"></path></svg>