<svg xmlns="http://www.w3.org/2000/svg" id="Layer_1" data-name="Layer 1" viewBox="0 0 1080 1080"><defs><style>.cls-1{fill:none;}.cls-1,.cls-3{stroke:#4268ad;}.cls-1,.cls-2,.cls-3,.cls-4{stroke-miterlimit:10;stroke-width:15px;}.cls-2{fill:#fff;}.cls-2,.cls-4{stroke:#df7a7b;}.cls-3{fill:#fffdfd;}.cls-4{font-size:263px;fill:#df7a7b;font-family:Poppins-Thin, Poppins;font-weight:200;}</style></defs><circle class="cls-1" cx="270.42" cy="425.13" r="239.04"></circle><circle class="cls-1" cx="270.42" cy="423.76" r="194.36"></circle><circle class="cls-2" cx="270.42" cy="423.76" r="19.53"></circle><ellipse class="cls-2" cx="268.48" cy="272.88" rx="10.73" ry="17.75"></ellipse><ellipse class="cls-2" cx="268.48" cy="576.62" rx="10.73" ry="17.75"></ellipse><ellipse class="cls-2" cx="117.15" cy="425.13" rx="17.75" ry="10.73"></ellipse><ellipse class="cls-2" cx="420.91" cy="425.13" rx="17.75" ry="10.73"></ellipse><rect class="cls-2" x="304.66" y="309.43" width="14.97" height="107.84" rx="7.48" transform="translate(263.68 -113.21) rotate(34.86)"></rect><rect class="cls-2" x="275.05" y="441.97" width="14.97" height="72.81" rx="7.48" transform="translate(644.9 899.52) rotate(169.86)"></rect><path class="cls-3" d="M554.64,344.63l297.13.36A706.07,706.07,0,0,1,951,454.56c25,34.29,53.39,73.88,72.81,132.77,9.49,28.75,17.58,54.11,15.71,88.52-2.47,45.44-20.79,78.48-34.27,102.79,0,0-25.43,45.87-62.81,80-95.66,87.18-280.1,86.59-412.6,27.12C489.48,867.6,428.1,839,398.49,774.35c-4-8.73-18.23-41.7-15.7-95.65C389.86,527.4,520.67,381.17,554.64,344.63Z"></path><path class="cls-1" d="M571.12,284.67c-16-31-30.62-56-41.76-74.15-25.89-42.11-37.7-55.2-33.79-74.14,4.06-19.67,22.49-31.71,42.35-44.69,10.53-6.87,29-18.66,54.73-22.09,28.21-3.77,50.6,4.8,94.23,22.09,33.49,13.28,30.17,15.86,55.2,24.55,33,11.48,59.54,14.18,89,17.19a586.67,586.67,0,0,0,84.71,2.46A160.08,160.08,0,0,1,904.83,182c-9,22.16-19.4,32.65-41.88,66.78-10.19,15.48-17.88,28.25-22.36,35.85Z"></path><rect class="cls-1" x="529.12" y="284.67" width="345.49" height="59.96" rx="27.09"></rect><text class="cls-4" transform="translate(638.46 692.03)">$</text><path class="cls-3" d="M270.42,756.94c14.17-6.58,36-16.86,62.72-29.94,43.9-21.52,54-27.6,72.94-32.84,18.12-5,38.94-4.76,79.83-4,69.23,1.21,112.27,7.54,127.63,26.77,2.17,2.71,7.92,9.92,7.89,19.71,0,10.54-6.76,18.16-10.35,22.23-9,10.19-21.15,14.82-43.37,19.2-18.12,3.57-28.83,4-72.93,8.84-16.55,1.81-28.09,3.22-39.18,12.13a55.71,55.71,0,0,0-15.52,20.46c23.77,10.13,44.12,18.56,59.87,25,55.25,22.62,76.67,30.12,102,36.38,11.94,3,21.8,4.91,28.09,6.07l21.44,2.27c189.45-26.3,260.77-47,289.77-61.39,3.52-1.75,33.07-16.68,69.48-13.64,23,1.91,33.62,9.72,39.18,15.16,3.11,3,14.71,14.38,14.78,31.83.11,23.5-20.79,37-22.17,37.89L688.45,1052.89a121.49,121.49,0,0,1-22.18,6.83,133.74,133.74,0,0,1-31.78,2.27c-29.58-1.1-56.18-11.37-56.18-11.37l-307.89-83Z"></path><rect class="cls-1" x="11.84" y="730.31" width="131.78" height="248.31"></rect><rect class="cls-1" x="143.61" y="692.21" width="126.8" height="319.07" rx="27.56"></rect></svg>