<svg xmlns="http://www.w3.org/2000/svg" id="Layer_1" data-name="Layer 1" viewBox="0 0 1080 1080"><defs><style>.cls-1,.cls-2{fill:#fff;}.cls-1,.cls-3{stroke:#4567b0;}.cls-1,.cls-2,.cls-3{stroke-miterlimit:10;stroke-width:15px;}.cls-2{stroke:#e07b7b;}.cls-3{fill:none;}.cls-4{fill:#4567b0;}</style></defs><polyline class="cls-1" points="962.4 235.27 1046.08 235.27 1046.08 1053.87 31.59 1053.87 31.59 235.27 719.81 235.27"></polyline><path class="cls-1" d="M64.89,877c-32.09,31.73-33.38,75.2-33.3,88V249.54c0-69.5,48.79-125.84,109-125.84h0c60.18,0,109,56.34,109,125.84V813.86l-1.6,33.3a248.68,248.68,0,0,0-100.45-3.89C117.87,848.3,88.94,853.22,64.89,877Z"></path><rect class="cls-2" x="396.14" y="414.95" width="114.16" height="114.16" rx="14.27"></rect><rect class="cls-2" x="396.14" y="839.16" width="114.16" height="114.16" rx="14.27"></rect><rect class="cls-2" x="783.38" y="608.24" width="114.16" height="114.16" rx="14.27"></rect><path class="cls-3" d="M515.7,470.41H800.15a40.15,40.15,0,0,1,40.31,40.32l-.78,95.89"></path><path class="cls-3" d="M777.54,662.73H491.32c-22.53,0-40.74,22.68-40.56,50.51l.78,120.08"></path><rect class="cls-4" x="644.57" y="801.22" width="175.14" height="21.08" rx="10.54"></rect><rect class="cls-4" x="644.57" y="863.16" width="246.27" height="21.08" rx="10.54"></rect><rect class="cls-4" x="644.57" y="914.08" width="246.27" height="21.08" rx="10.54"></rect><polygon class="cls-2" points="693.87 387.05 706.84 304.03 974.08 35.49 1046.08 107.49 782.08 374.73 693.87 387.05"></polygon></svg>