<svg xmlns="http://www.w3.org/2000/svg" id="Layer_1" data-name="Layer 1" viewBox="0 0 1080 1080"><defs><style>.cls-1,.cls-4{fill:none;}.cls-1,.cls-3{stroke:#4268ad;}.cls-1,.cls-2,.cls-3,.cls-4{stroke-miterlimit:10;}.cls-1,.cls-2,.cls-4{stroke-width:15px;}.cls-2{fill:#fff;}.cls-2,.cls-4{stroke:#df7a7b;}.cls-3{font-size:287.01px;fill:#4268ad;stroke-width:7px;font-family:Poppins-Thin, Poppins;font-weight:200;}.cls-5{fill:#df7a7b;}</style></defs><rect class="cls-1" x="35.86" y="859.93" width="95.49" height="186.44"></rect><rect class="cls-1" x="193.38" y="785.65" width="95.49" height="260.72"></rect><rect class="cls-1" x="348.34" y="703.28" width="95.49" height="343.08"></rect><rect class="cls-1" x="503.95" y="632.56" width="95.49" height="413.81"></rect><polyline class="cls-1" points="679.32 692.18 679.32 329.22 515.04 329.22 789.49 41.4 1066.64 332.04 906.18 332.04 906.18 634.81"></polyline><circle class="cls-2" cx="799.2" cy="808.98" r="237.39"></circle><text class="cls-3" transform="translate(715.92 912.11)">$</text><path class="cls-4" d="M33.07,731.1C90.85,726.39,218.75,708,345.34,616.6A613.17,613.17,0,0,0,476.28,488.16"></path><path class="cls-5" d="M525.35,412.09c-10.11,44.29-16.5,103.28-10.55,146.34l-45.54-60.67-73.81-17.48C437.29,468.52,488.81,439.08,525.35,412.09Z"></path></svg>