<svg xmlns="http://www.w3.org/2000/svg" id="Layer_1" data-name="Layer 1" viewBox="0 0 1080 1080"><defs><style>.cls-1{fill:#fff;stroke:#4268ad;}.cls-1,.cls-2,.cls-3{stroke-miterlimit:10;stroke-width:15px;}.cls-2,.cls-3{fill:none;}.cls-2{stroke:#df7a7b;}.cls-3{stroke:#b8c8e7;}.cls-4{fill:#f4a2a6;}</style></defs><circle class="cls-1" cx="236.51" cy="385.74" r="74.78"></circle><path class="cls-1" d="M153.42,576.84q-1.9,120.74-3.32,241.51-1.22,103-2.08,205.93a47.69,47.69,0,0,0,1,10.66,39.78,39.78,0,0,0,3,9.43,43.91,43.91,0,0,0,5.85,8.85c2.93,3.39,16.4,17.14,37.67,17.72,6.34.18,21.07.59,32.13-10.52,8.57-8.61,10.14-19.32,10.52-23.26a39.6,39.6,0,0,0,11.08,21.6c9.6,9.43,21.16,10.64,26,11.08,4.46.39,17.43,1.36,29.36-7.2,16.23-11.65,17.1-31.29,17.17-33.79L324,606.75,536.18,475.47a44,44,0,0,0,7.2-4.8c2.43-2,11.47-9.42,14.22-21.05,4.18-17.66-9.18-32.23-9.78-32.86-10.31-10.9-26.69-14.69-42.1-10L344,505.94c-154.27,1.18-211.7.88-223.23,0a32.69,32.69,0,0,0-5.27,0C96.57,507.45,84.24,525,82.89,527c-9.15,13.41-9,27.48-8.68,32.68L72,782.9a25.6,25.6,0,0,0-.55,6.1,28.25,28.25,0,0,0,6.09,16.06c7,9.26,17.22,11.89,22.71,13.29a53.08,53.08,0,0,0,19.94,1.11,57.75,57.75,0,0,0,30-13.83"></path><line class="cls-1" x1="236.51" y1="789.55" x2="238.35" y2="1046.57"></line><path class="cls-2" d="M700.83,515.51a143.73,143.73,0,0,0-11.27-28.37c-8.58-16.29-17.3-25.14-25.1-34.38-17.6-20.82-27.05-39.53-39.77-64.7-12.55-24.83-19.3-38.2-23.59-58-2.66-12.26-11.16-58.36,12.13-107.16,12-25.09,27.21-40.11,30.33-43.14,27.26-26.38,57.63-34.07,70.1-37.07,12-2.87,49.84-11.4,93.68,5.4,18,6.88,51.17,23.48,74.14,60,3.3,5.26,19.1,31.12,22.24,68.75,3.73,44.77-12.69,79.52-21.57,97.72-7.09,14.53-25.41,48-47.85,76.16a131.2,131.2,0,0,0-21.57,37.07,126.75,126.75,0,0,0-6.91,27.89Z"></path><rect class="cls-1" x="670.35" y="515.7" width="155.69" height="52.82" rx="16.95"></rect><rect class="cls-1" x="707.89" y="627.41" width="87.95" height="39.43" rx="12.65"></rect><rect class="cls-3" x="664.79" y="569.67" width="166.81" height="56.6" rx="16.95"></rect><rect class="cls-4" x="736.74" y="30.69" width="24.6" height="74.14" rx="7.89"></rect><rect class="cls-4" x="870.52" y="63.45" width="24.6" height="74.14" rx="7.89" transform="translate(210.3 -480.17) rotate(34.31)"></rect><rect class="cls-4" x="608.66" y="63.45" width="24.6" height="74.14" rx="7.89" transform="translate(1190.51 -166.51) rotate(145.69)"></rect><rect class="cls-4" x="965.13" y="162.07" width="24.6" height="74.14" rx="7.89" transform="translate(661.18 -746.91) rotate(60)"></rect><rect class="cls-4" x="513.98" y="160.55" width="24.6" height="74.14" rx="7.89" transform="translate(960.57 -159.34) rotate(120)"></rect><path class="cls-4" d="M661.76,260c2.09-4.46,6.43-13.73,14.15-21.23,9.36-9.1,20.5-12.51,27-14.49,15.83-4.85,23.38-2.07,27.3-8.09,3.11-4.8,2.51-13-1.54-17.44-10.56-11.58-48.27-1.74-71.19,20.53-16.86,16.39-30.21,43.89-21.63,55.54,3.4,4.62,10.67,7.33,15.5,5.4C656.5,278.16,656.22,271.83,661.76,260Z"></path></svg>