<svg xmlns="http://www.w3.org/2000/svg" id="Layer_1" data-name="Layer 1" viewBox="0 0 1080 1080"><defs><style>.cls-1{fill:none;stroke:#000;stroke-miterlimit:10;stroke-width:24.71px;}</style></defs><path d="M912.66,741l-38.8,17c7.29,47.58-5.71,72.4-44.25,83.43,2.43,17.72-.42,34.68-12.16,49.23-11.39,14.12-26,22.14-44.22,22.9.21,46-36.65,71-70.69,66.57-.92,23.37-11.93,40.66-32.56,51.48-18.39,9.65-37,10-55.34-.35-15.27-8.63-30.43-17.46-46.33-26.61-5.07,8.68-9.85,16.58-14.35,24.63-13,23.27-32.76,35.38-59.41,33.82-28.49-1.66-48.68-15.73-58.2-43.46a16.77,16.77,0,0,0-1.38-2.55c-39.66,6.87-60.75-1.83-80.75-33.85-23.55,14.23-47.52,14.39-70.51-1.22S252,943.8,256.48,915.56c-19.4-.61-35.36-7.4-47.94-21.56-19.24-21.67-22.47-50.63-8.21-75.74,4.26-7.5,7.88-15.51,13.07-22.31,11.82-15.49,8.5-32.28,3.71-48.31-2-6.61-9.25-12.65-15.57-16.7-8.31-5.34-18-8.46-28-12.89-2.87,5.56-5.54,11.07-8.5,16.44-11.15,20.28-34.89,28.86-55.95,19.23q-37.62-17.19-74.5-36C12.31,706.35,5.31,681.43,17,657.26,57.52,573.09,98.3,489,138.58,404.71c2.87-6,3.62-13.65,3.31-20.44-1.65-36.56-5.24-73.07-5.75-109.63-1-70.48-.35-141-.35-211.49,0-16,7.9-22.25,23.6-20.12C214.74,50.56,269.75,61.46,326,60.17A572.87,572.87,0,0,0,525.67,19.76c10.13-4,19.21-3.94,28.85-.06C615.24,44.17,678.29,59,743.75,59.22c38.84.12,77.74-4.37,116.53-7.79,20.92-1.85,41.64-5.9,62.47-8.81,12.62-1.76,21.1,5.77,21.19,19.1.17,26.26.25,52.53,0,78.79-.54,64.61-.89,129.23-2.17,193.83-.39,19.59-3.9,39.11-5.2,58.72a36.89,36.89,0,0,0,3.15,17.66q60.62,126.4,121.84,252.5c14.48,29.94,6.57,52.54-23.5,67.09q-30.27,14.64-60.54,29.25C950.52,772.53,930.33,767,912.66,741Zm-364-607a29.52,29.52,0,0,0-17.62.27c-77.35,26-156.68,37.88-238.25,34.34-15.42-.66-30.83-1.6-46-2.4-.61,1.25-1.17,1.86-1.16,2.46.66,58.72,1.23,117.44,2.41,176.15.07,3.59,4.18,8.42,7.69,10.37,11.73,6.53,24.17,11.76,36.1,17.94,22.06,11.43,30.31,35.42,20.2,58.14-2.94,6.6-6.18,13.07-9.9,20.91,11.57,5.81,21.93,12.28,33.17,16.25,8.73,3.09,18.79,5.05,27.86,4,20.16-2.33,40.17-6.39,60.05-10.62,33.36-7.09,65.09-4.64,94.85,13.37,5.88,3.56,12.69,5.63,18.41,9.38,6.92,4.55,12,3.19,18.48-1.38,33.54-23.5,69.94-31,110-19.15,24.1,7.12,48.7,12.53,72.95,19.2,17.14,4.7,31.48-.77,45.59-9.79-5.76-12.81-11.81-24.46-16.3-36.69-8.37-22.79.33-43.54,22.07-54.62,9.52-4.85,18.89-10.24,28.87-13.88,10.76-3.91,14.41-10.6,14.49-21.7.41-57.69,1.38-115.37,2.09-173.06a50.5,50.5,0,0,0-.81-6.9c-5,0-9.49-.34-13.9,0m-299.65,694c29.09-8.13,53.53-1.84,72.89,21.44a14.51,14.51,0,0,0,4,3.25C631.65,905.1,666,925,700.65,944.25c11.4,6.36,23.28,3.27,31.67-6.56,11.71-13.73,8.95-31.6-6.86-41.53-39.14-24.61-78.42-49-117.63-73.5-4.09-2.56-8.43-4.89-12-8.07-8.89-7.92-7.25-22.68,3.83-26.34,5.55-1.84,13.89-.4,19.08,2.71,33.74,20.22,66.93,41.34,100.35,62.08,12.9,8,25.65,16.3,39,23.54,16.7,9.08,34.26.73,38.55-17.54,2.69-11.43-2.77-21.19-16.27-29.23-43-25.59-86-51.06-128.83-76.95-4.69-2.84-10.51-7.74-11.14-12.34-.76-5.46,1.89-14.11,6-16.83,4.56-3,13.79-3.13,18.76-.42,22.69,12.39,44.52,26.35,66.81,39.47,24.38,14.35,48.73,28.75,73.48,42.44,17.2,9.52,37.11-.32,39-19,1.45-14.55-7.47-24.29-18.88-30.81-57.48-32.89-115.27-65.23-172.9-97.85-11.46-6.49-23.23-7.73-35.88-4.18-24.53,6.88-49.14,13.47-73.73,20.14-23.6,6.41-47,13.83-70.87,18.88-30.45,6.45-55.66-5.35-78.75-25-28.19-24-27.4-57.19,3.2-77.77q47.7-32.05,95.48-64c7-4.7,13.92-9.55,21.64-14.87-22.52-12.59-43.58-24.06-69.44-18.75-17.55,3.6-35.64,5-52.87,9.62-33,8.91-63.36,4.94-92-13.65-3.57-2.32-7.74-3.71-12.08-5.74l-99.63,206c24.69,10.59,50.18,18.56,60.44,46.87,19.17-22.57,42-32,69.95-23.9,27.7,8.06,42.47,27.84,46.66,56.45,37.17-2.84,61.63,13.78,74,47.89C482.25,810.7,506.79,824.2,520.36,860.73ZM798.23,503.3c-23.71,13.6-47.05,18.56-72.69,10.94-23.74-7.07-48-12.23-71.93-18.85-27.69-7.68-53-3.55-76.73,12.72-33.59,23-67.54,45.46-101.34,68.15-20.62,13.85-41.21,27.75-61.88,41.52-7.18,4.78-10,10.87-4.73,18.28,13.66,19.17,39.47,28.48,62.55,22.35,44.92-11.92,89.86-23.83,134.56-36.53,24.93-7.08,47.18-2.72,69.28,10,55.86,32.2,112.16,63.63,168.39,95.19,3.33,1.87,8.28,4,11.23,2.86,14.61-5.72,28.79-12.5,43.62-19.13C865,641.4,831.87,572.88,798.23,503.3Zm111-424.53c-1.32.07-3,0-4.72.26C872.35,83.17,840.3,88.56,808,91.26c-88.76,7.41-174.73-6.3-258-37.51-7.27-2.73-13.25-2.79-20.55-.06-98.26,36.7-199.19,48.72-303.16,32.16-18.86-3-37.86-5.09-55.76-7.46V341l41.83-8.85c0-60.27,0-121.43,0-182.59,0-14.87,7.57-20.81,22.41-19.09,17.82,2.06,35.7,4.06,53.61,4.86A638.28,638.28,0,0,0,530.63,99.45a30.54,30.54,0,0,1,18.86.1c96.48,34.15,195.4,43.94,296.76,31.13,13.52-1.71,21.26,4.9,21.16,18.58-.51,62.88-1.23,125.76-1.83,188.64a52.07,52.07,0,0,0,.63,6.2c7.62,0,14.61-.94,21.21.26,6.79,1.25,13.2,4.59,21.81,7.76Zm127.55,610.85c-1.58-4.34-2.3-7-3.47-9.43q-71-147.11-142.1-294.16c-5.52-11.39-9.63-12.59-21.38-6.93q-30.74,14.81-61.37,29.8c-13,6.33-14.09,9.49-7.86,22.41Q855.4,544.93,910.24,658.53q15.5,32.13,30.85,64.32c3.81,8,8.78,13.63,18.54,8.93,23-11,46-22.06,68.75-33.54C1031.87,696.49,1034.18,692.37,1036.78,689.62Zm-837.87-324c-3.08,3.47-7.5,6.73-9.62,11.11Q117.88,523.65,47,670.79C42,681,43.62,685.49,54,690.55q32,15.68,64.2,31.08c10.71,5.13,14.89,3.61,20.3-7.57q71-146.53,141.81-293.11c5.25-10.85,3.75-15.18-7.14-20.52q-31.55-15.49-63.24-30.67C207.14,368.44,204.16,367.59,198.91,365.64Zm88.6,564.18c1.13,14.22,10,25.23,24.45,29.33,13.4,3.82,25.87-.73,33.51-13.78q28.95-49.49,56.95-99.52c8.75-15.65,3.76-32.4-11.08-41.07-15.06-8.8-31.6-5.12-41,10.55-19.68,32.76-38.76,65.89-57.77,99C289.91,919,289.14,924.64,287.51,929.82Zm-62.9-82.25c-.06,17.81,8.07,28.79,22.15,32.93,13.84,4.07,27.32-1.2,35.23-14.67,15.18-25.85,30-51.88,44.83-78a31.19,31.19,0,0,0-16.54-45c-13.19-4.73-27.64,0-35.7,13.37-16,26.55-31.36,53.5-46.65,80.47C225.64,840.74,225.13,845.77,224.61,847.57Zm241,152.08c.93,14.24,8.73,25.2,21.64,29.33,14.5,4.64,28.08.34,35.89-12.73,15.2-25.43,29.93-51.14,44.56-76.91,10.23-18,6.11-35.38-10.07-44.69-15.85-9.13-32.18-4.21-42.76,13.59q-22.18,37.32-43.51,75.13C468.6,988.31,467.51,994.2,465.64,999.65Zm-83.56-46.17c0,16.21,8.48,27.72,21.17,31.87,13,4.23,27,.81,34-10.7,17-28,33.52-56.29,49-85.11,8.3-15.38.22-33.5-15.84-40.31-14.44-6.13-29.46-1.9-37.77,12-16.11,26.92-31.68,54.17-47.16,81.47C383.22,946.71,382.62,951.71,382.08,953.48Zm203.38,23.26c15.61,8.94,31.14,18.53,47.32,26.84,11.7,6,25.65,1,32.46-9.93s4.63-26.86-6.61-34.19c-16.6-10.83-34.11-20.26-50.3-29.74Z"></path><polyline class="cls-1" points="460.51 316.71 500.47 388.13 639.48 255.35"></polyline></svg>